<svg id="Layer_1" data-name="Layer 1" xmlns="http://www.w3.org/2000/svg" width="526.6" height="342.46" viewBox="0 0 526.6 342.46">
  <title>DSOM</title>
  <g>
    <polyline points="359.03 188.1 107.53 212.6 433.01 188.1" style="fill: none;stroke: #231f20;stroke-miterlimit: 10;stroke-width: 0.5px"/>
    <polyline points="507 188.1 107.53 212.6 359.03 116.31" style="fill: none;stroke: #231f20;stroke-miterlimit: 10;stroke-width: 0.5px"/>
    <polyline points="433.01 116.31 107.53 212.6 507 116.31" style="fill: none;stroke: #231f20;stroke-miterlimit: 10;stroke-width: 0.5px"/>
    <polyline points="359.03 44.52 107.53 212.6 433.01 44.52" style="fill: none;stroke: #231f20;stroke-miterlimit: 10;stroke-width: 0.5px"/>
    <line x1="107.53" y1="212.6" x2="507" y2="44.52" style="fill: none;stroke: #231f20;stroke-miterlimit: 10;stroke-width: 0.5px"/>
  </g>
  <g>
    <polyline points="359.03 44.52 107.53 68.62 433.01 44.52" style="fill: none;stroke: #231f20;stroke-miterlimit: 10;stroke-width: 0.5px"/>
    <polyline points="507 44.52 107.53 68.62 359.03 116.31" style="fill: none;stroke: #231f20;stroke-miterlimit: 10;stroke-width: 0.5px"/>
    <polyline points="433.01 116.31 107.53 68.62 507 116.31" style="fill: none;stroke: #231f20;stroke-miterlimit: 10;stroke-width: 0.5px"/>
    <polyline points="359.03 188.1 107.53 68.62 433.01 188.1" style="fill: none;stroke: #231f20;stroke-miterlimit: 10;stroke-width: 0.5px"/>
    <line x1="107.53" y1="68.62" x2="507" y2="188.1" style="fill: none;stroke: #231f20;stroke-miterlimit: 10;stroke-width: 0.5px"/>
  </g>
  <g>
    <polyline points="359.03 44.52 107.53 20.01 433.01 44.52" style="fill: none;stroke: #231f20;stroke-miterlimit: 10;stroke-width: 0.5px"/>
    <polyline points="507 44.52 107.53 20.01 359.03 116.31" style="fill: none;stroke: #231f20;stroke-miterlimit: 10;stroke-width: 0.5px"/>
    <polyline points="433.01 116.31 107.53 20.01 507 116.31" style="fill: none;stroke: #231f20;stroke-miterlimit: 10;stroke-width: 0.5px"/>
    <polyline points="359.03 188.1 107.53 20.01 433.01 188.1" style="fill: none;stroke: #231f20;stroke-miterlimit: 10;stroke-width: 0.5px"/>
    <line x1="107.53" y1="20.01" x2="507" y2="188.1" style="fill: none;stroke: #231f20;stroke-miterlimit: 10;stroke-width: 0.5px"/>
  </g>
  <g>
    <g>
      <rect x="359.03" y="44.52" width="147.97" height="143.58" style="fill: none;stroke: #231f20;stroke-miterlimit: 10"/>
      <line x1="433.01" y1="188.1" x2="433.01" y2="44.52" style="fill: none;stroke: #231f20;stroke-miterlimit: 10"/>
      <line x1="507" y1="116.31" x2="359.03" y2="116.31" style="fill: none;stroke: #231f20;stroke-miterlimit: 10"/>
    </g>
    <circle cx="359.03" cy="44.52" r="19.11" style="fill: #fff;stroke: #231f20;stroke-miterlimit: 10"/>
    <circle cx="433.01" cy="44.52" r="19.11" style="fill: #fff;stroke: #231f20;stroke-miterlimit: 10"/>
    <circle cx="507" cy="44.52" r="19.11" style="fill: #fff;stroke: #231f20;stroke-miterlimit: 10"/>
    <circle cx="359.03" cy="116.31" r="19.11" style="fill: #fff;stroke: #231f20;stroke-miterlimit: 10"/>
    <circle cx="433.01" cy="116.31" r="19.11" style="fill: #fff;stroke: #231f20;stroke-miterlimit: 10"/>
    <circle cx="507" cy="116.31" r="19.11" style="fill: #fff;stroke: #231f20;stroke-miterlimit: 10"/>
    <circle cx="359.03" cy="188.1" r="19.11" style="fill: #fff;stroke: #231f20;stroke-miterlimit: 10"/>
    <circle cx="433.01" cy="188.1" r="19.11" style="fill: #fff;stroke: #231f20;stroke-miterlimit: 10"/>
    <circle cx="507" cy="188.1" r="19.11" style="fill: #fff;stroke: #231f20;stroke-miterlimit: 10"/>
  </g>
  <g>
    <circle cx="107.53" cy="20.01" r="19.51" style="fill: #fff;stroke: #231f20;stroke-miterlimit: 10"/>
    <circle cx="107.53" cy="68.62" r="19.51" style="fill: #fff;stroke: #231f20;stroke-miterlimit: 10"/>
    <circle cx="107.53" cy="212.6" r="19.51" style="fill: #fff;stroke: #231f20;stroke-miterlimit: 10"/>
    <g>
      <path d="M225.73,174.86a1.58,1.58,0,1,1,1.58,1.57A1.49,1.49,0,0,1,225.73,174.86Z" transform="translate(-119.78 -60.57)" style="fill: #231f20"/>
      <path d="M225.73,200.06a1.58,1.58,0,1,1,1.58,1.57A1.49,1.49,0,0,1,225.73,200.06Z" transform="translate(-119.78 -60.57)" style="fill: #231f20"/>
      <path d="M225.73,225.26a1.58,1.58,0,1,1,1.58,1.57A1.49,1.49,0,0,1,225.73,225.26Z" transform="translate(-119.78 -60.57)" style="fill: #231f20"/>
    </g>
  </g>
  <rect x="18.86" y="8.87" width="36.88" height="36.88" style="fill: #fff;stroke: #231f20;stroke-miterlimit: 10"/>
  <rect x="18.86" y="45.75" width="36.88" height="36.88" style="fill: #fff;stroke: #231f20;stroke-miterlimit: 10"/>
  <polygon points="18.86 82.63 18.86 119.52 18.86 156.4 18.86 193.29 55.75 193.29 55.75 156.4 55.75 119.52 55.75 82.63 18.86 82.63" style="fill: #fff;stroke: #231f20;stroke-miterlimit: 10"/>
  <rect x="18.86" y="193.29" width="36.88" height="36.88" style="fill: #fff;stroke: #231f20;stroke-miterlimit: 10"/>
  <g>
    <g>
      <path d="M181.34,352.12V355h-7.79v-14.7h7.58v2.83h-4.59v3.05h4.17v2.73h-4.17v3.25Z" transform="translate(-119.78 -60.57)" style="fill: #231f20"/>
      <path d="M191.13,348.13V355h-2.88v-6.83c0-1.36-.37-1.85-1.07-1.85s-1.19.55-1.19,1.64v7h-2.86V343.83H185l.21,1.13a2.91,2.91,0,0,1,2.62-1.4C189.91,343.56,191.13,345.11,191.13,348.13Z" transform="translate(-119.78 -60.57)" style="fill: #231f20"/>
      <path d="M198.48,352.44v2.68h-.92a3.69,3.69,0,0,1-3.89-4.05v-4.66h-1.45v-2.58h1.45v-2.69h2.84v2.69h1.82v2.58h-1.82v4.7c0,.93.4,1.33,1.26,1.33Z" transform="translate(-119.78 -60.57)" style="fill: #231f20"/>
      <path d="M206.29,343.81v2.73a3,3,0,0,0-1.34-.3c-1.2,0-1.93.67-1.93,2.14V355h-2.86V343.83h1.89l.23,1.28a3.06,3.06,0,0,1,2.79-1.55A2.46,2.46,0,0,1,206.29,343.81Z" transform="translate(-119.78 -60.57)" style="fill: #231f20"/>
      <path d="M215.41,351.41a3.89,3.89,0,0,1-4.18,3.8c-2.5,0-4-1.64-4-4.39v-3c0-2.71,1.49-4.3,4-4.3s4.09,1.59,4.09,4.3v2.5h-5.25v.46c0,1.15.4,1.66,1.16,1.66s1-.32,1.24-1.07Zm-3.55-9.24h-2l1.56-2.88h2.37Zm-1.75,5.65v.59h2.42v-.59c0-1.14-.42-1.62-1.24-1.62S210.11,346.68,210.11,347.82Z" transform="translate(-119.78 -60.57)" style="fill: #231f20"/>
      <path d="M225,351.41a3.88,3.88,0,0,1-4.18,3.8c-2.49,0-4-1.64-4-4.39v-3c0-2.71,1.49-4.3,4-4.3s4.09,1.59,4.09,4.3v2.5h-5.25v.46c0,1.15.4,1.66,1.16,1.66s1.05-.32,1.24-1.07Zm-5.29-3.59v.59h2.42v-.59c0-1.14-.42-1.62-1.24-1.62S219.73,346.68,219.73,347.82Z" transform="translate(-119.78 -60.57)" style="fill: #231f20"/>
      <path d="M226.05,351.41h2.86a1.25,1.25,0,0,0,1.36,1.26c.76,0,1.2-.36,1.2-.88,0-1.75-5.23-1.24-5.23-5,0-2,1.49-3.23,3.84-3.23,2.67,0,3.76,1.59,3.93,3.69h-2.75c-.06-.71-.36-1.18-1.18-1.18-.6,0-1,.3-1,.72,0,1.55,5.25.94,5.25,5,0,2.1-1.45,3.51-4,3.51A4,4,0,0,1,226.05,351.41Z" transform="translate(-119.78 -60.57)" style="fill: #231f20"/>
    </g>
    <g>
      <path d="M119.78,365.35H121l1.89,7.89c.31,1.29.51,2.23.74,3.19h.07c.24-1,.43-1.9.74-3.19l1.89-7.89h1.19L124.28,378H123Z" transform="translate(-119.78 -60.57)" style="fill: #231f20"/>
      <path d="M134.44,375.06a3,3,0,0,1-3.23,3.08c-1.83,0-3-1.21-3-3.37v-3.12c0-2.16,1.24-3.36,3.1-3.36s3.15,1.2,3.15,3.36v2.09h-5.17v1c0,1.58.76,2.32,2,2.32s2-.65,2.13-2Zm-5.19-3.41v1.1h4.11v-1.1c0-1.58-.78-2.32-2.07-2.32S129.25,370.07,129.25,371.65Z" transform="translate(-119.78 -60.57)" style="fill: #231f20"/>
      <path d="M136.27,374.77v-3.12c0-2.16,1.21-3.36,3-3.36s3.08,1.2,3.13,3.36h-1.08c-.06-1.58-.77-2.32-2-2.32s-2,.74-2,2.32v3.12c0,1.58.74,2.32,2,2.32s2-.74,2.07-2.32h1.08c-.06,2.16-1.26,3.37-3.15,3.37S136.27,376.93,136.27,374.77Z" transform="translate(-119.78 -60.57)" style="fill: #231f20"/>
      <path d="M148.08,377v1h-.54c-1.73,0-2.68-1.08-2.68-2.9v-5.66h-1.44v-1h1.44v-2.18h1.06v2.18h1.94v1h-1.94v5.66c0,1.24.5,1.89,1.62,1.89Z" transform="translate(-119.78 -60.57)" style="fill: #231f20"/>
      <path d="M155.7,375.06a3,3,0,0,1-3.23,3.08c-1.83,0-3-1.21-3-3.37v-3.12c0-2.16,1.24-3.36,3.1-3.36s3.15,1.2,3.15,3.36v2.09h-5.17v1c0,1.58.76,2.32,2,2.32s2-.65,2.12-2Zm-5.19-3.41v1.1h4.11v-1.1c0-1.58-.78-2.32-2.08-2.32S150.51,370.07,150.51,371.65Z" transform="translate(-119.78 -60.57)" style="fill: #231f20"/>
      <path d="M163.71,368.5V378h-.89l-.18-1.17a2.67,2.67,0,0,1-2.45,1.38c-1.53,0-2.53-1-2.53-3.62V368.5h1.06v5.89c0,1.91.5,2.77,1.74,2.77s2.18-1.09,2.18-2.93V368.5Z" transform="translate(-119.78 -60.57)" style="fill: #231f20"/>
      <path d="M170.56,368.4v1.15a3.26,3.26,0,0,0-1.19-.2c-1.35,0-2.23,1.08-2.23,2.88V378h-1.06V368.5H167l.18,1.19v0a2.7,2.7,0,0,1,2.47-1.4A3.53,3.53,0,0,1,170.56,368.4Z" transform="translate(-119.78 -60.57)" style="fill: #231f20"/>
      <path d="M171.41,375.15h1.06a1.86,1.86,0,0,0,2.07,2c1.17,0,1.85-.6,1.85-1.6,0-2.31-4.86-1.46-4.86-4.7a2.55,2.55,0,0,1,2.85-2.54,2.75,2.75,0,0,1,2.93,2.9h-1.06a1.72,1.72,0,0,0-1.87-1.88c-1.12,0-1.77.58-1.77,1.55,0,2.22,4.87,1.37,4.87,4.7a2.63,2.63,0,0,1-2.94,2.61A2.91,2.91,0,0,1,171.41,375.15Z" transform="translate(-119.78 -60.57)" style="fill: #231f20"/>
      <path d="M183.16,374.77v-3.12c0-2.16,1.21-3.36,3-3.36s3.07,1.2,3.13,3.36h-1.08c-.06-1.58-.78-2.32-2.05-2.32s-1.95.74-1.95,2.32v3.12c0,1.58.74,2.32,1.95,2.32s2-.74,2.07-2.32h1.08c-.06,2.16-1.26,3.37-3.15,3.37S183.16,376.93,183.16,374.77Z" transform="translate(-119.78 -60.57)" style="fill: #231f20"/>
      <path d="M196.84,371.42V378h-.92l-.09-.9a2.54,2.54,0,0,1-2.17,1.11,2.76,2.76,0,0,1-3-2.9c0-1.82,1.17-2.82,3.24-2.82h1.87v-1c0-1.39-.65-2.13-1.87-2.13A1.73,1.73,0,0,0,192,371H191a2.75,2.75,0,0,1,3-2.68A2.8,2.8,0,0,1,196.84,371.42Zm-1.06,3.69v-1.67h-1.91c-1.38,0-2.12.64-2.12,1.85s.84,1.84,2.07,1.84A1.84,1.84,0,0,0,195.78,375.11Z" transform="translate(-119.78 -60.57)" style="fill: #231f20"/>
      <path d="M203.7,368.4v1.15a3.26,3.26,0,0,0-1.19-.2c-1.35,0-2.23,1.08-2.23,2.88V378h-1.06V368.5h.88l.18,1.19v0a2.7,2.7,0,0,1,2.47-1.4A3.53,3.53,0,0,1,203.7,368.4Z" transform="translate(-119.78 -60.57)" style="fill: #231f20"/>
      <path d="M210.7,371.42V378h-.92l-.09-.9a2.54,2.54,0,0,1-2.17,1.11,2.76,2.76,0,0,1-3-2.9c0-1.82,1.17-2.82,3.24-2.82h1.87v-1c0-1.39-.65-2.13-1.87-2.13a1.73,1.73,0,0,0-1.89,1.66h-1.07a2.75,2.75,0,0,1,3-2.68A2.8,2.8,0,0,1,210.7,371.42Zm-1.06,3.69v-1.67h-1.91c-1.38,0-2.12.64-2.12,1.85s.84,1.84,2.07,1.84A1.84,1.84,0,0,0,209.64,375.11Z" transform="translate(-119.78 -60.57)" style="fill: #231f20"/>
      <path d="M212.84,374.77v-3.12c0-2.16,1.21-3.36,3-3.36s3.08,1.2,3.13,3.36h-1.08c0-1.58-.77-2.32-2-2.32s-2,.74-2,2.32v3.12c0,1.58.74,2.32,2,2.32s2-.74,2.07-2.32H219c-.06,2.16-1.26,3.37-3.15,3.37S212.84,376.93,212.84,374.77Z" transform="translate(-119.78 -60.57)" style="fill: #231f20"/>
      <path d="M224.65,377v1h-.54c-1.73,0-2.68-1.08-2.68-2.9v-5.66H220v-1h1.44v-2.18h1.06v2.18h1.95v1h-1.95v5.66c0,1.24.51,1.89,1.62,1.89Z" transform="translate(-119.78 -60.57)" style="fill: #231f20"/>
      <path d="M232.27,375.06a3,3,0,0,1-3.23,3.08c-1.83,0-3-1.21-3-3.37v-3.12c0-2.16,1.24-3.36,3.1-3.36s3.15,1.2,3.15,3.36v2.09h-5.17v1c0,1.58.76,2.32,2,2.32s2-.65,2.12-2Zm-5.19-3.41v1.1h4.11v-1.1c0-1.58-.78-2.32-2.07-2.32S227.08,370.07,227.08,371.65Z" transform="translate(-119.78 -60.57)" style="fill: #231f20"/>
      <path d="M238.82,368.4v1.15a3.26,3.26,0,0,0-1.19-.2c-1.35,0-2.23,1.08-2.23,2.88V378h-1.07V368.5h.89l.18,1.19v0a2.67,2.67,0,0,1,2.46-1.4A3.6,3.6,0,0,1,238.82,368.4Z" transform="translate(-119.78 -60.57)" style="fill: #231f20"/>
      <path d="M240,365.89a.87.87,0,0,1,1.73,0,.87.87,0,1,1-1.73,0Zm.34,2.61h1.06V378h-1.06Z" transform="translate(-119.78 -60.57)" style="fill: #231f20"/>
      <path d="M243.1,375.15h1.06a1.86,1.86,0,0,0,2.07,2c1.17,0,1.86-.6,1.86-1.6,0-2.31-4.86-1.46-4.86-4.7a2.55,2.55,0,0,1,2.84-2.54,2.76,2.76,0,0,1,2.94,2.9h-1.07a1.72,1.72,0,0,0-1.87-1.88c-1.12,0-1.76.58-1.76,1.55,0,2.22,4.86,1.37,4.86,4.7a2.63,2.63,0,0,1-2.94,2.61A2.91,2.91,0,0,1,243.1,375.15Z" transform="translate(-119.78 -60.57)" style="fill: #231f20"/>
      <path d="M254.76,377v1h-.54c-1.72,0-2.68-1.08-2.68-2.9v-5.66H250.1v-1h1.44v-2.18h1.06v2.18h2v1h-2v5.66c0,1.24.51,1.89,1.62,1.89Z" transform="translate(-119.78 -60.57)" style="fill: #231f20"/>
      <path d="M256,365.89a.87.87,0,0,1,1.73,0,.87.87,0,1,1-1.73,0Zm.34,2.61h1.06V378h-1.06Z" transform="translate(-119.78 -60.57)" style="fill: #231f20"/>
      <path d="M265.69,368.5v12.7h-1v-4.09a2.66,2.66,0,0,1-2.2,1.06c-1.82,0-2.93-1.2-2.93-3.55v-2.71c0-2.4,1.22-3.62,2.93-3.62a2.66,2.66,0,0,1,2.23,1.1l.15-.89Zm-1,6.12v-2.75c0-1.76-.88-2.59-2-2.59-1.31,0-2.08.77-2.08,2.63v2.71c0,1.81.7,2.56,2.08,2.56C263.87,377.18,264.65,376.14,264.65,374.62Z" transform="translate(-119.78 -60.57)" style="fill: #231f20"/>
      <path d="M274,368.5V378h-.88l-.18-1.17a2.69,2.69,0,0,1-2.45,1.38c-1.53,0-2.54-1-2.54-3.62V368.5H269v5.89c0,1.91.5,2.77,1.75,2.77s2.18-1.09,2.18-2.93V368.5Z" transform="translate(-119.78 -60.57)" style="fill: #231f20"/>
      <path d="M282.41,375.06a3,3,0,0,1-3.22,3.08c-1.84,0-3-1.21-3-3.37v-3.12c0-2.16,1.24-3.36,3.09-3.36a3,3,0,0,1,3.16,3.36v2.09h-5.17v1c0,1.58.75,2.32,2,2.32s2-.65,2.12-2Zm-5.18-3.41v1.1h4.1v-1.1c0-1.58-.77-2.32-2.07-2.32S277.23,370.07,277.23,371.65Z" transform="translate(-119.78 -60.57)" style="fill: #231f20"/>
      <path d="M151.34,386.52v13h-.87l-.14-.89a2.66,2.66,0,0,1-2.23,1.1c-1.71,0-2.94-1.22-2.94-3.62v-2.72c0-2.34,1.12-3.54,2.94-3.54a2.65,2.65,0,0,1,2.19,1.06v-4.43Zm-1.05,9.67v-2.76c0-1.51-.77-2.55-2-2.55-1.38,0-2.09.75-2.09,2.55v2.72c0,1.86.78,2.63,2.09,2.63C149.41,398.78,150.29,398,150.29,396.19Z" transform="translate(-119.78 -60.57)" style="fill: #231f20"/>
      <path d="M159.75,396.66a3,3,0,0,1-3.23,3.08c-1.83,0-3-1.21-3-3.37v-3.12c0-2.16,1.24-3.36,3.1-3.36s3.15,1.2,3.15,3.36v2.09h-5.17v1c0,1.58.76,2.32,2,2.32s2-.65,2.12-2Zm-5.19-3.41v1.1h4.1v-1.1c0-1.58-.77-2.32-2.07-2.32S154.56,391.67,154.56,393.25Z" transform="translate(-119.78 -60.57)" style="fill: #231f20"/>
      <path d="M161.18,396.75h1.07a1.86,1.86,0,0,0,2.07,2c1.17,0,1.85-.6,1.85-1.61,0-2.3-4.86-1.45-4.86-4.69a2.55,2.55,0,0,1,2.84-2.54,2.75,2.75,0,0,1,2.94,2.9H166a1.72,1.72,0,0,0-1.88-1.88c-1.11,0-1.76.58-1.76,1.55,0,2.22,4.86,1.37,4.86,4.7a2.63,2.63,0,0,1-2.93,2.61A2.91,2.91,0,0,1,161.18,396.75Z" transform="translate(-119.78 -60.57)" style="fill: #231f20"/>
      <path d="M172.94,396.37v-3.12c0-2.16,1.2-3.36,3-3.36s3.08,1.2,3.13,3.36H178c0-1.58-.77-2.32-2-2.32s-1.94.74-1.94,2.32v3.12c0,1.58.74,2.32,1.94,2.32s2-.74,2.07-2.32h1.08c-.05,2.16-1.26,3.37-3.15,3.37S172.94,398.53,172.94,396.37Z" transform="translate(-119.78 -60.57)" style="fill: #231f20"/>
      <path d="M186.91,393.85v5.71h-1.07v-5.62c0-2.18-.55-3-1.74-3s-2.18,1.09-2.18,3v5.71h-1.06v-13h1.06v4.7a2.71,2.71,0,0,1,2.45-1.4C186,389.89,186.91,391.07,186.91,393.85Z" transform="translate(-119.78 -60.57)" style="fill: #231f20"/>
      <path d="M194.84,393v6.54h-.91l-.09-.9a2.57,2.57,0,0,1-2.18,1.11,2.76,2.76,0,0,1-3-2.9c0-1.82,1.17-2.82,3.24-2.82h1.87v-1c0-1.39-.65-2.13-1.87-2.13a1.73,1.73,0,0,0-1.89,1.66H189a2.74,2.74,0,0,1,3-2.68C193.75,389.89,194.84,391.09,194.84,393Zm-1.06,3.69V395h-1.91c-1.38,0-2.12.64-2.12,1.85s.85,1.84,2.07,1.84A1.84,1.84,0,0,0,193.78,396.71Z" transform="translate(-119.78 -60.57)" style="fill: #231f20"/>
      <path d="M203.27,393.51v6.05h-1.06v-5.89c0-1.91-.51-2.77-1.75-2.77s-2.18,1.09-2.18,2.93v5.73h-1.06V390.1h.88l.18,1.17a2.69,2.69,0,0,1,2.45-1.38C202.26,389.89,203.27,390.91,203.27,393.51Z" transform="translate(-119.78 -60.57)" style="fill: #231f20"/>
      <path d="M211.49,390.1v10.1a2.75,2.75,0,0,1-3,2.83,2.78,2.78,0,0,1-3-2.74h1a1.78,1.78,0,0,0,2,1.75,1.74,1.74,0,0,0,1.94-1.84v-1.83a2.58,2.58,0,0,1-2.09.9c-1.82,0-3-1.21-3-3.37v-2.43c0-2.36,1.22-3.58,3-3.58a2.49,2.49,0,0,1,2.16,1.17l.14-1Zm-1.06,5.8v-2.61c0-1.64-.86-2.39-1.91-2.39-1.33,0-2.14.75-2.14,2.57v2.43c0,1.6.81,2.36,2.14,2.36S210.43,397.5,210.43,395.9Z" transform="translate(-119.78 -60.57)" style="fill: #231f20"/>
      <path d="M219.9,396.66a3,3,0,0,1-3.22,3.08c-1.84,0-3.05-1.21-3.05-3.37v-3.12c0-2.16,1.25-3.36,3.1-3.36s3.15,1.2,3.15,3.36v2.09h-5.17v1c0,1.58.76,2.32,2,2.32s2-.65,2.13-2Zm-5.19-3.41v1.1h4.11v-1.1c0-1.58-.77-2.32-2.07-2.32S214.71,391.67,214.71,393.25Z" transform="translate(-119.78 -60.57)" style="fill: #231f20"/>
      <path d="M232.72,393.54v6h-1.06v-5.93c0-2-.6-2.73-1.63-2.73-1.27,0-2.16,1.09-2.16,2.93v5.73h-1.06v-5.93c0-2-.63-2.73-1.67-2.73-1.26,0-2.11,1.09-2.11,2.93v5.73H222V390.1h.88l.16,1.23a2.53,2.53,0,0,1,2.36-1.44,2.29,2.29,0,0,1,2.27,1.81,2.67,2.67,0,0,1,2.63-1.81C231.73,389.89,232.72,391,232.72,393.54Z" transform="translate(-119.78 -60.57)" style="fill: #231f20"/>
      <path d="M241,396.66a3,3,0,0,1-3.22,3.08c-1.84,0-3-1.21-3-3.37v-3.12c0-2.16,1.24-3.36,3.1-3.36s3.15,1.2,3.15,3.36v2.09h-5.17v1c0,1.58.75,2.32,2,2.32s2-.65,2.12-2Zm-5.18-3.41v1.1h4.1v-1.1c0-1.58-.77-2.32-2.07-2.32S235.83,391.67,235.83,393.25Z" transform="translate(-119.78 -60.57)" style="fill: #231f20"/>
      <path d="M249.13,393.51v6.05h-1.06v-5.89c0-1.91-.5-2.77-1.75-2.77s-2.18,1.09-2.18,2.93v5.73h-1.06V390.1H244l.18,1.17a2.69,2.69,0,0,1,2.45-1.38C248.12,389.89,249.13,390.91,249.13,393.51Z" transform="translate(-119.78 -60.57)" style="fill: #231f20"/>
      <path d="M255.2,398.64v1h-.54c-1.73,0-2.69-1.08-2.69-2.9v-5.66h-1.44v-1H252v-2.18H253v2.18H255v1H253v5.66c0,1.24.5,1.89,1.62,1.89Z" transform="translate(-119.78 -60.57)" style="fill: #231f20"/>
      <path d="M256.11,396.75h1.07a1.86,1.86,0,0,0,2.07,2c1.17,0,1.85-.6,1.85-1.61,0-2.3-4.86-1.45-4.86-4.69a2.55,2.55,0,0,1,2.84-2.54,2.75,2.75,0,0,1,2.94,2.9H261a1.72,1.72,0,0,0-1.88-1.88c-1.11,0-1.76.58-1.76,1.55,0,2.22,4.86,1.37,4.86,4.7a2.63,2.63,0,0,1-2.93,2.61A2.91,2.91,0,0,1,256.11,396.75Z" transform="translate(-119.78 -60.57)" style="fill: #231f20"/>
    </g>
  </g>
  <g>
    <g>
      <path d="M499.92,374.39v-5.47c0-2.43,1.39-3.78,3.37-3.78s3.37,1.29,3.49,3.63H505.7c-.12-1.78-1-2.63-2.41-2.63s-2.29.9-2.29,2.78v5.47c0,1.87,1,2.77,2.36,2.77s2.27-.88,2.45-2.63h1.08c-.18,2.31-1.46,3.64-3.53,3.64S499.92,376.82,499.92,374.39Z" transform="translate(-119.78 -60.57)" style="fill: #231f20"/>
      <path d="M508.47,374.75v-3c0-2.22,1.26-3.42,3.15-3.42s3.16,1.2,3.16,3.42v3c0,2.22-1.27,3.42-3.16,3.42S508.47,377,508.47,374.75Zm5.22,0v-3c0-1.64-.79-2.38-2.07-2.38s-2.07.74-2.07,2.38v3c0,1.64.8,2.38,2.07,2.38S513.69,376.39,513.69,374.75Z" transform="translate(-119.78 -60.57)" style="fill: #231f20"/>
      <path d="M527.66,371.94v6H526.6V372c0-2-.59-2.73-1.62-2.73-1.28,0-2.16,1.09-2.16,2.93V378h-1.06V372c0-2-.63-2.73-1.68-2.73-1.26,0-2.1,1.09-2.1,2.93V378h-1.07V368.5h.89l.16,1.23a2.52,2.52,0,0,1,2.36-1.44,2.29,2.29,0,0,1,2.27,1.82,2.67,2.67,0,0,1,2.62-1.82C526.67,368.29,527.66,369.44,527.66,371.94Z" transform="translate(-119.78 -60.57)" style="fill: #231f20"/>
      <path d="M536.1,371.91v2.71c0,2.35-1.11,3.55-2.93,3.55a2.67,2.67,0,0,1-2.2-1.06v4.09h-1V368.5h.86l.15.89a2.66,2.66,0,0,1,2.23-1.1C534.88,368.29,536.1,369.51,536.1,371.91Zm-1.08,0c0-1.86-.77-2.63-2.08-2.63-1.08,0-2,.83-2,2.59v2.75c0,1.52.78,2.56,2,2.56,1.38,0,2.08-.75,2.08-2.56Z" transform="translate(-119.78 -60.57)" style="fill: #231f20"/>
      <path d="M538,374.75v-3c0-2.22,1.26-3.42,3.15-3.42s3.15,1.2,3.15,3.42v3c0,2.22-1.26,3.42-3.15,3.42S538,377,538,374.75Zm5.22,0v-3c0-1.64-.79-2.38-2.07-2.38s-2.07.74-2.07,2.38v3c0,1.64.79,2.38,2.07,2.38S543.23,376.39,543.23,374.75Z" transform="translate(-119.78 -60.57)" style="fill: #231f20"/>
      <path d="M550.94,368.4v1.15a3.33,3.33,0,0,0-1.19-.2c-1.35,0-2.24,1.08-2.24,2.88V378h-1.06V368.5h.88l.18,1.19v0a2.7,2.7,0,0,1,2.47-1.4A3.6,3.6,0,0,1,550.94,368.4Z" transform="translate(-119.78 -60.57)" style="fill: #231f20"/>
      <path d="M556.21,377v1h-.54c-1.73,0-2.68-1.08-2.68-2.9v-5.66h-1.44v-1H553v-2.18h1.06v2.18H556v1h-1.94v5.66c0,1.24.5,1.89,1.62,1.89Z" transform="translate(-119.78 -60.57)" style="fill: #231f20"/>
      <path d="M563.82,375.06a3,3,0,0,1-3.22,3.08c-1.84,0-3-1.21-3-3.37v-3.12c0-2.16,1.24-3.36,3.09-3.36a3,3,0,0,1,3.16,3.36v2.09h-5.17v1c0,1.58.75,2.32,2,2.32s2-.65,2.12-2Zm-5.18-3.41v1.1h4.1v-1.1c0-1.58-.77-2.32-2.07-2.32S558.64,370.07,558.64,371.65Z" transform="translate(-119.78 -60.57)" style="fill: #231f20"/>
      <path d="M576.64,371.94v6h-1.06V372c0-2-.6-2.73-1.62-2.73-1.28,0-2.16,1.09-2.16,2.93V378h-1.06V372c0-2-.63-2.73-1.68-2.73-1.26,0-2.11,1.09-2.11,2.93V378h-1.06V368.5h.88l.17,1.23a2.51,2.51,0,0,1,2.35-1.44,2.27,2.27,0,0,1,2.27,1.82,2.69,2.69,0,0,1,2.63-1.82C575.65,368.29,576.64,369.44,576.64,371.94Z" transform="translate(-119.78 -60.57)" style="fill: #231f20"/>
      <path d="M584.94,375.06a3,3,0,0,1-3.23,3.08c-1.83,0-3-1.21-3-3.37v-3.12c0-2.16,1.24-3.36,3.1-3.36s3.15,1.2,3.15,3.36v2.09h-5.17v1c0,1.58.76,2.32,2,2.32s2-.65,2.13-2Zm-5.19-3.41v1.1h4.11v-1.1c0-1.58-.78-2.32-2.07-2.32S579.75,370.07,579.75,371.65Z" transform="translate(-119.78 -60.57)" style="fill: #231f20"/>
      <path d="M593.06,371.91v6H592v-5.89c0-1.91-.5-2.77-1.74-2.77s-2.18,1.09-2.18,2.93V378H587V368.5h.88l.18,1.17a2.67,2.67,0,0,1,2.45-1.38C592.05,368.29,593.06,369.31,593.06,371.91Z" transform="translate(-119.78 -60.57)" style="fill: #231f20"/>
      <path d="M599.12,377v1h-.54c-1.73,0-2.68-1.08-2.68-2.9v-5.66h-1.44v-1h1.44v-2.18H597v2.18h1.94v1H597v5.66c0,1.24.5,1.89,1.62,1.89Z" transform="translate(-119.78 -60.57)" style="fill: #231f20"/>
      <path d="M600,375.15h1.06a1.86,1.86,0,0,0,2.07,2c1.17,0,1.85-.6,1.85-1.6,0-2.31-4.86-1.46-4.86-4.7a2.55,2.55,0,0,1,2.85-2.54,2.75,2.75,0,0,1,2.93,2.9h-1.06a1.72,1.72,0,0,0-1.87-1.88c-1.12,0-1.77.58-1.77,1.55,0,2.22,4.87,1.37,4.87,4.7a2.63,2.63,0,0,1-2.94,2.61A2.91,2.91,0,0,1,600,375.15Z" transform="translate(-119.78 -60.57)" style="fill: #231f20"/>
    </g>
    <g>
      <path d="M528.83,350.67h3.06c0,1.18.59,1.68,1.53,1.68s1.47-.56,1.47-1.3c0-2.44-5.75-2.73-5.75-7.2,0-2.25,1.57-3.89,4.28-3.89a4,4,0,0,1,4.35,4.33H534.7c0-1-.44-1.45-1.3-1.45s-1.24.42-1.24,1.09c0,2.31,5.84,2.46,5.84,7.14,0,2.42-1.7,4.18-4.62,4.18S528.83,353.63,528.83,350.67Z" transform="translate(-119.78 -60.57)" style="fill: #231f20"/>
      <path d="M539.14,350.8V348c0-2.83,1.53-4.4,4.13-4.4s4.14,1.57,4.14,4.4v2.84c0,2.83-1.53,4.43-4.14,4.43S539.14,353.63,539.14,350.8Zm5.35,0V348c0-1.15-.42-1.63-1.22-1.63s-1.22.48-1.22,1.63v2.84c0,1.15.42,1.66,1.22,1.66S544.49,352,544.49,350.8Z" transform="translate(-119.78 -60.57)" style="fill: #231f20"/>
      <path d="M555.39,343.81v2.73a3,3,0,0,0-1.35-.3c-1.19,0-1.93.67-1.93,2.14V355h-2.85V343.83h1.89l.23,1.28a3.06,3.06,0,0,1,2.79-1.55A2.52,2.52,0,0,1,555.39,343.81Z" transform="translate(-119.78 -60.57)" style="fill: #231f20"/>
      <path d="M561.94,352.44v2.68H561a3.69,3.69,0,0,1-3.89-4.05v-4.66h-1.45v-2.58h1.45v-2.69H560v2.69h1.82v2.58H560v4.7c0,.93.4,1.33,1.26,1.33Z" transform="translate(-119.78 -60.57)" style="fill: #231f20"/>
      <path d="M563.5,340.62a1.52,1.52,0,0,1,1.57-1.58,1.55,1.55,0,0,1,1.58,1.58,1.59,1.59,0,0,1-1.58,1.57A1.53,1.53,0,0,1,563.5,340.62Zm.12,3.21h2.88V355h-2.88Z" transform="translate(-119.78 -60.57)" style="fill: #231f20"/>
      <path d="M576.51,351.41a3.88,3.88,0,0,1-4.17,3.8c-2.5,0-4-1.64-4-4.39v-3c0-2.71,1.49-4.3,4-4.3s4.09,1.59,4.09,4.3v2.5h-5.25v.46c0,1.15.4,1.66,1.16,1.66s1-.32,1.24-1.07Zm-5.29-3.59v.59h2.42v-.59c0-1.14-.42-1.62-1.24-1.62S571.22,346.68,571.22,347.82Z" transform="translate(-119.78 -60.57)" style="fill: #231f20"/>
    </g>
  </g>
</svg>
