<svg id="Layer_1" data-name="Layer 1" xmlns="http://www.w3.org/2000/svg" width="558.6" height="210.61" viewBox="0 0 558.6 210.61">
  <title>VCC</title>
  <g>
    <rect x="167.04" y="0.5" width="39.02" height="39.02" style="fill: #fff;stroke: #231f20;stroke-miterlimit: 10"/>
    <rect x="206.06" y="0.5" width="39.02" height="39.02" style="fill: #fff;stroke: #231f20;stroke-miterlimit: 10"/>
    <rect x="245.08" y="0.5" width="39.02" height="39.02" style="fill: #fff;stroke: #231f20;stroke-miterlimit: 10"/>
    <rect x="284.11" y="0.5" width="39.02" height="39.02" style="fill: #fff;stroke: #231f20;stroke-miterlimit: 10"/>
    <rect x="323.13" y="0.5" width="39.02" height="39.02" style="fill: #fff;stroke: #231f20;stroke-miterlimit: 10"/>
    <rect x="362.16" y="0.5" width="39.02" height="39.02" style="fill: #fff;stroke: #231f20;stroke-miterlimit: 10"/>
    <rect x="401.18" y="0.5" width="39.02" height="39.02" style="fill: #fff;stroke: #231f20;stroke-miterlimit: 10"/>
    <rect x="440.21" y="0.5" width="39.02" height="39.02" style="fill: #fff;stroke: #231f20;stroke-miterlimit: 10"/>
    <polygon points="518.25 0.5 479.23 0.5 479.23 39.52 518.25 39.52 557.28 39.52 557.28 0.5 518.25 0.5" style="fill: #fff;stroke: #231f20;stroke-miterlimit: 10"/>
  </g>
  <g>
    <rect x="167.04" y="57.38" width="39.02" height="39.02" style="fill: #fff;stroke: #231f20;stroke-miterlimit: 10"/>
    <rect x="206.06" y="57.38" width="39.02" height="39.02" style="fill: #fff;stroke: #231f20;stroke-miterlimit: 10"/>
    <rect x="245.08" y="57.38" width="39.02" height="39.02" style="fill: #fff;stroke: #231f20;stroke-miterlimit: 10"/>
    <rect x="284.11" y="57.38" width="39.02" height="39.02" style="fill: #fff;stroke: #231f20;stroke-miterlimit: 10"/>
    <rect x="323.13" y="57.38" width="39.02" height="39.02" style="fill: #fff;stroke: #231f20;stroke-miterlimit: 10"/>
    <rect x="362.16" y="57.38" width="39.02" height="39.02" style="fill: #fff;stroke: #231f20;stroke-miterlimit: 10"/>
    <rect x="401.18" y="57.38" width="39.02" height="39.02" style="fill: #fff;stroke: #231f20;stroke-miterlimit: 10"/>
    <rect x="440.21" y="57.38" width="39.02" height="39.02" style="fill: #fff;stroke: #231f20;stroke-miterlimit: 10"/>
    <polygon points="518.25 57.38 479.23 57.38 479.23 96.41 518.25 96.41 557.28 96.41 557.28 57.38 518.25 57.38" style="fill: #fff;stroke: #231f20;stroke-miterlimit: 10"/>
  </g>
  <g>
    <rect x="167.04" y="141.37" width="39.02" height="39.02" style="fill: #fff;stroke: #231f20;stroke-miterlimit: 10"/>
    <rect x="206.06" y="141.37" width="39.02" height="39.02" style="fill: #fff;stroke: #231f20;stroke-miterlimit: 10"/>
    <rect x="245.08" y="141.37" width="39.02" height="39.02" style="fill: #fff;stroke: #231f20;stroke-miterlimit: 10"/>
    <rect x="284.11" y="141.37" width="39.02" height="39.02" style="fill: #fff;stroke: #231f20;stroke-miterlimit: 10"/>
    <rect x="323.13" y="141.37" width="39.02" height="39.02" style="fill: #fff;stroke: #231f20;stroke-miterlimit: 10"/>
    <rect x="362.16" y="141.37" width="39.02" height="39.02" style="fill: #fff;stroke: #231f20;stroke-miterlimit: 10"/>
    <rect x="401.18" y="141.37" width="39.02" height="39.02" style="fill: #fff;stroke: #231f20;stroke-miterlimit: 10"/>
    <rect x="440.21" y="141.37" width="39.02" height="39.02" style="fill: #fff;stroke: #231f20;stroke-miterlimit: 10"/>
    <polygon points="518.25 141.37 479.23 141.37 479.23 180.4 518.25 180.4 557.28 180.4 557.28 141.37 518.25 141.37" style="fill: #fff;stroke: #231f20;stroke-miterlimit: 10"/>
  </g>
  <g>
    <path d="M20.26,18h.79l1.26,5.25c.2.87.34,1.49.49,2.12h.05c.16-.63.29-1.25.49-2.12L24.6,18h.79l-2.13,8.39h-.87Z" transform="translate(-12.93 -10)" style="fill: #231f20"/>
    <path d="M31.23,24.48a2.09,2.09,0,1,1-4.18-.19V22.22a2.09,2.09,0,1,1,4.16,0v1.39H27.77v.68c0,1.06.5,1.55,1.33,1.55s1.32-.43,1.42-1.36Zm-3.46-2.26V23h2.74v-.73c0-1.06-.52-1.55-1.38-1.55S27.77,21.16,27.77,22.22Z" transform="translate(-12.93 -10)" style="fill: #231f20"/>
    <path d="M33.65,24.29V22.22a2,2,0,0,1,2-2.25,2,2,0,0,1,2.08,2.25H37c0-1.06-.51-1.55-1.36-1.55s-1.3.49-1.3,1.55v2.07c0,1.06.49,1.55,1.3,1.55s1.34-.49,1.38-1.55h.72a2,2,0,0,1-2.1,2.24A2,2,0,0,1,33.65,24.29Z" transform="translate(-12.93 -10)" style="fill: #231f20"/>
    <path d="M42.72,25.8v.67h-.36a1.7,1.7,0,0,1-1.79-1.93V20.78h-1v-.66h1V18.67h.71v1.45h1.3v.66h-1.3v3.76c0,.83.34,1.26,1.08,1.26Z" transform="translate(-12.93 -10)" style="fill: #231f20"/>
    <path d="M49,24.48a2.09,2.09,0,1,1-4.18-.19V22.22a2.09,2.09,0,1,1,4.16,0v1.39H45.54v.68c0,1.06.51,1.55,1.33,1.55s1.32-.43,1.42-1.36Zm-3.46-2.26V23h2.74v-.73c0-1.06-.52-1.55-1.38-1.55S45.54,21.16,45.54,22.22Z" transform="translate(-12.93 -10)" style="fill: #231f20"/>
    <path d="M55.54,20.12v6.29H55l-.12-.78a1.78,1.78,0,0,1-1.63.93c-1,0-1.69-.69-1.69-2.41v-4h.7V24c0,1.27.34,1.85,1.17,1.85s1.45-.74,1.45-2V20.12Z" transform="translate(-12.93 -10)" style="fill: #231f20"/>
    <path d="M61.31,20.05v.76a2.33,2.33,0,0,0-.79-.13c-.9,0-1.49.72-1.49,1.92v3.81h-.71V20.12h.59l.12.79h0A1.79,1.79,0,0,1,60.67,20,2.53,2.53,0,0,1,61.31,20.05Z" transform="translate(-12.93 -10)" style="fill: #231f20"/>
    <path d="M63.07,24.54h.71a1.24,1.24,0,0,0,1.38,1.32c.78,0,1.24-.39,1.24-1.07,0-1.53-3.24-1-3.24-3.13A1.7,1.7,0,0,1,65.05,20a1.83,1.83,0,0,1,2,1.93H66.3a1.14,1.14,0,0,0-1.25-1.24c-.74,0-1.17.38-1.17,1,0,1.47,3.24.91,3.24,3.13a1.76,1.76,0,0,1-2,1.74A2,2,0,0,1,63.07,24.54Z" transform="translate(-12.93 -10)" style="fill: #231f20"/>
    <path d="M73.31,24.29V22.22a2,2,0,0,1,2-2.25,2,2,0,0,1,2.08,2.25h-.72c0-1.06-.51-1.55-1.36-1.55s-1.3.49-1.3,1.55v2.07c0,1.06.49,1.55,1.3,1.55s1.34-.49,1.37-1.55h.72a2,2,0,0,1-2.09,2.24A2,2,0,0,1,73.31,24.29Z" transform="translate(-12.93 -10)" style="fill: #231f20"/>
    <path d="M83.63,22.06v4.35H83l-.06-.6a1.71,1.71,0,0,1-1.45.75,1.85,1.85,0,0,1-2-1.93c0-1.21.78-1.89,2.16-1.89h1.25v-.67c0-.92-.43-1.41-1.25-1.41a1.14,1.14,0,0,0-1.26,1.1h-.7a1.82,1.82,0,0,1,2-1.79A1.87,1.87,0,0,1,83.63,22.06Zm-.71,2.46V23.4H81.65c-.92,0-1.42.44-1.42,1.24s.57,1.22,1.38,1.22A1.22,1.22,0,0,0,82.92,24.52Z" transform="translate(-12.93 -10)" style="fill: #231f20"/>
    <path d="M89.4,20.05v.76a2.33,2.33,0,0,0-.79-.13c-.9,0-1.49.72-1.49,1.92v3.81h-.71V20.12H87l.12.79h0A1.81,1.81,0,0,1,88.76,20,2.53,2.53,0,0,1,89.4,20.05Z" transform="translate(-12.93 -10)" style="fill: #231f20"/>
    <path d="M95.27,22.06v4.35h-.61l-.06-.6a1.71,1.71,0,0,1-1.45.75,1.85,1.85,0,0,1-2-1.93c0-1.21.78-1.89,2.16-1.89h1.25v-.67c0-.92-.43-1.41-1.25-1.41a1.14,1.14,0,0,0-1.26,1.1h-.7a1.82,1.82,0,0,1,2-1.79A1.87,1.87,0,0,1,95.27,22.06Zm-.71,2.46V23.4H93.29c-.92,0-1.42.44-1.42,1.24s.57,1.22,1.38,1.22A1.22,1.22,0,0,0,94.56,24.52Z" transform="translate(-12.93 -10)" style="fill: #231f20"/>
    <path d="M97.9,24.29V22.22a2,2,0,0,1,2-2.25A2,2,0,0,1,102,22.22h-.72c0-1.06-.52-1.55-1.37-1.55s-1.29.49-1.29,1.55v2.07c0,1.06.49,1.55,1.29,1.55s1.35-.49,1.38-1.55H102a2,2,0,0,1-2.1,2.24A2,2,0,0,1,97.9,24.29Z" transform="translate(-12.93 -10)" style="fill: #231f20"/>
    <path d="M107,25.8v.67h-.36a1.7,1.7,0,0,1-1.79-1.93V20.78h-1v-.66h1V18.67h.71v1.45h1.29v.66h-1.29v3.76c0,.83.34,1.26,1.08,1.26Z" transform="translate(-12.93 -10)" style="fill: #231f20"/>
    <path d="M113.24,24.48a2.09,2.09,0,1,1-4.17-.19V22.22a2.09,2.09,0,1,1,4.16,0v1.39h-3.44v.68c0,1.06.5,1.55,1.33,1.55s1.32-.43,1.42-1.36Zm-3.45-2.26V23h2.73v-.73c0-1.06-.51-1.55-1.37-1.55S109.79,21.16,109.79,22.22Z" transform="translate(-12.93 -10)" style="fill: #231f20"/>
    <path d="M118.81,20.05v.76a2.33,2.33,0,0,0-.79-.13c-.9,0-1.49.72-1.49,1.92v3.81h-.7V20.12h.58l.12.79h0a1.82,1.82,0,0,1,1.65-.93A2.45,2.45,0,0,1,118.81,20.05Z" transform="translate(-12.93 -10)" style="fill: #231f20"/>
    <path d="M120.77,18.38a.58.58,0,1,1,1.15,0,.58.58,0,0,1-1.15,0Zm.23,1.74h.71v6.29H121Z" transform="translate(-12.93 -10)" style="fill: #231f20"/>
    <path d="M124.07,24.54h.71a1.24,1.24,0,0,0,1.38,1.32c.78,0,1.23-.39,1.23-1.07,0-1.53-3.24-1-3.24-3.13a1.71,1.71,0,0,1,1.9-1.69,1.83,1.83,0,0,1,2,1.93h-.7a1.14,1.14,0,0,0-1.25-1.24c-.74,0-1.18.38-1.18,1,0,1.47,3.24.91,3.24,3.13a1.75,1.75,0,0,1-2,1.74A2,2,0,0,1,124.07,24.54Z" transform="translate(-12.93 -10)" style="fill: #231f20"/>
    <path d="M133,25.8v.67h-.36a1.69,1.69,0,0,1-1.78-1.93V20.78h-1v-.66h1V18.67h.7v1.45h1.3v.66h-1.3v3.76c0,.83.34,1.26,1.08,1.26Z" transform="translate(-12.93 -10)" style="fill: #231f20"/>
    <path d="M135.05,18.38a.58.58,0,1,1,1.15,0,.58.58,0,0,1-1.15,0Zm.23,1.74H136v6.29h-.71Z" transform="translate(-12.93 -10)" style="fill: #231f20"/>
    <path d="M142.73,20.12v8.45H142V25.85a1.78,1.78,0,0,1-1.46.71c-1.21,0-2-.81-2-2.36V22.38c0-1.59.82-2.41,2-2.41a1.81,1.81,0,0,1,1.49.74l.09-.59ZM142,24.2V22.36c0-1.17-.59-1.73-1.31-1.73-.87,0-1.39.52-1.39,1.75V24.2c0,1.19.47,1.7,1.39,1.7S142,25.2,142,24.2Z" transform="translate(-12.93 -10)" style="fill: #231f20"/>
    <path d="M149.47,20.12v6.29h-.59l-.12-.78a1.77,1.77,0,0,1-1.63.93c-1,0-1.69-.69-1.69-2.41v-4h.71V24c0,1.27.34,1.85,1.16,1.85s1.45-.74,1.45-2V20.12Z" transform="translate(-12.93 -10)" style="fill: #231f20"/>
    <path d="M156.28,24.48a2.09,2.09,0,1,1-4.18-.19V22.22a2.09,2.09,0,1,1,4.16,0v1.39h-3.44v.68c0,1.06.5,1.55,1.33,1.55s1.32-.43,1.42-1.36Zm-3.46-2.26V23h2.74v-.73c0-1.06-.52-1.55-1.38-1.55S152.82,21.16,152.82,22.22Z" transform="translate(-12.93 -10)" style="fill: #231f20"/>
    <path d="M63.08,32.13v8.68H62.5l-.09-.58a1.82,1.82,0,0,1-1.49.73c-1.14,0-2-.82-2-2.41V36.74c0-1.56.75-2.37,2-2.37a1.76,1.76,0,0,1,1.46.71V32.13Zm-.7,6.44V36.74c0-1-.51-1.71-1.3-1.71s-1.4.51-1.4,1.71v1.81c0,1.23.52,1.75,1.4,1.75C61.8,40.3,62.38,39.75,62.38,38.57Z" transform="translate(-12.93 -10)" style="fill: #231f20"/>
    <path d="M69.88,38.88a2.09,2.09,0,1,1-4.17-.19V36.62a2.09,2.09,0,1,1,4.16,0V38H66.43v.68c0,1.06.5,1.55,1.33,1.55s1.32-.43,1.41-1.36Zm-3.45-2.26v.73h2.73v-.73c0-1.06-.51-1.55-1.38-1.55S66.43,35.56,66.43,36.62Z" transform="translate(-12.93 -10)" style="fill: #231f20"/>
    <path d="M76.45,32.14h.71v8.67h-.71Z" transform="translate(-12.93 -10)" style="fill: #231f20"/>
    <path d="M80,32.42h.5l-.25,2.49h-.8Z" transform="translate(-12.93 -10)" style="fill: #231f20"/>
    <path d="M82.45,32.78a.58.58,0,1,1,.57.57A.54.54,0,0,1,82.45,32.78Zm.23,1.74h.7v6.29h-.7Z" transform="translate(-12.93 -10)" style="fill: #ed1c24"/>
    <path d="M93.33,36.81v4h-.71V36.87c0-1.32-.4-1.83-1.08-1.83-.85,0-1.44.74-1.44,2v3.81h-.71V36.87c0-1.32-.42-1.83-1.11-1.83-.84,0-1.4.74-1.4,2v3.81h-.71V34.52h.59l.1.81a1.7,1.7,0,0,1,1.57-1A1.54,1.54,0,0,1,90,35.58a1.78,1.78,0,0,1,1.75-1.21C92.67,34.37,93.33,35.14,93.33,36.81Z" transform="translate(-12.93 -10)" style="fill: #ed1c24"/>
    <path d="M99.82,36.46v4.35h-.61l-.06-.6A1.69,1.69,0,0,1,97.7,41a1.84,1.84,0,0,1-2-1.93c0-1.21.78-1.89,2.16-1.89h1.24v-.67c0-.92-.43-1.41-1.24-1.41a1.14,1.14,0,0,0-1.26,1.1H95.9a1.83,1.83,0,0,1,2-1.79A1.87,1.87,0,0,1,99.82,36.46Zm-.71,2.46V37.8H97.84c-.92,0-1.41.44-1.41,1.24s.56,1.22,1.38,1.22A1.22,1.22,0,0,0,99.11,38.92Z" transform="translate(-12.93 -10)" style="fill: #ed1c24"/>
    <path d="M106.58,34.52v6.73a2,2,0,0,1-4,.06h.69a1.18,1.18,0,0,0,1.31,1.16,1.16,1.16,0,0,0,1.3-1.22V40a1.7,1.7,0,0,1-1.39.6,2,2,0,0,1-2-2.24V36.76c0-1.57.82-2.39,2-2.39a1.65,1.65,0,0,1,1.43.78l.1-.63Zm-.71,3.86V36.64c0-1.09-.58-1.6-1.27-1.6-.89,0-1.43.51-1.43,1.72v1.62c0,1.07.54,1.57,1.43,1.57S105.87,39.45,105.87,38.38Z" transform="translate(-12.93 -10)" style="fill: #ed1c24"/>
    <path d="M113.38,38.88a2.09,2.09,0,1,1-4.17-.19V36.62a2.09,2.09,0,1,1,4.16,0V38h-3.44v.68c0,1.06.5,1.55,1.33,1.55s1.32-.43,1.41-1.36Zm-3.45-2.26v.73h2.73v-.73c0-1.06-.51-1.55-1.38-1.55S109.93,35.56,109.93,36.62Z" transform="translate(-12.93 -10)" style="fill: #ed1c24"/>
    <path d="M119.68,32.78a.55.55,0,0,1,.58-.58.54.54,0,0,1,.57.58.53.53,0,0,1-.57.57A.54.54,0,0,1,119.68,32.78Zm.23,1.74h.71v6.29h-.71Z" transform="translate(-12.93 -10)" style="fill: #ed1c24"/>
  </g>
  <g>
    <path d="M19.59,74.9h.79l1.26,5.26c.21.86.34,1.48.5,2.12h0c.16-.64.29-1.26.5-2.12l1.25-5.26h.8l-2.14,8.4h-.86Z" transform="translate(-12.93 -10)" style="fill: #231f20"/>
    <path d="M30.56,81.37a2.09,2.09,0,1,1-4.18-.2V79.1a2.09,2.09,0,1,1,4.17,0v1.39H27.1v.68c0,1.06.51,1.55,1.34,1.55s1.31-.43,1.41-1.35ZM27.1,79.1v.73h2.74V79.1c0-1.06-.52-1.55-1.38-1.55S27.1,78,27.1,79.1Z" transform="translate(-12.93 -10)" style="fill: #231f20"/>
    <path d="M33,81.17V79.1a2,2,0,0,1,2-2.24,2,2,0,0,1,2.09,2.24h-.72c0-1.06-.52-1.55-1.37-1.55s-1.3.49-1.3,1.55v2.07c0,1.06.5,1.55,1.3,1.55s1.34-.49,1.38-1.55h.72A2,2,0,0,1,35,83.42,2,2,0,0,1,33,81.17Z" transform="translate(-12.93 -10)" style="fill: #231f20"/>
    <path d="M42.06,82.69v.67H41.7a1.69,1.69,0,0,1-1.79-1.93V77.66H39V77h1V75.55h.71V77h1.29v.66H40.62v3.77c0,.82.33,1.26,1.08,1.26Z" transform="translate(-12.93 -10)" style="fill: #231f20"/>
    <path d="M48.33,81.37a2.09,2.09,0,1,1-4.17-.2V79.1a2.09,2.09,0,1,1,4.16,0v1.39H44.88v.68c0,1.06.5,1.55,1.33,1.55s1.32-.43,1.41-1.35ZM44.88,79.1v.73h2.73V79.1c0-1.06-.51-1.55-1.38-1.55S44.88,78,44.88,79.1Z" transform="translate(-12.93 -10)" style="fill: #231f20"/>
    <path d="M54.87,77v6.3h-.59l-.12-.78a1.78,1.78,0,0,1-1.63.92c-1,0-1.69-.68-1.69-2.41V77h.71v3.92c0,1.27.33,1.85,1.16,1.85s1.45-.73,1.45-2V77Z" transform="translate(-12.93 -10)" style="fill: #231f20"/>
    <path d="M60.64,76.93v.77a2.1,2.1,0,0,0-.79-.14c-.9,0-1.49.72-1.49,1.92V83.3h-.7V77h.58l.12.79h0A1.82,1.82,0,0,1,60,76.87,2.45,2.45,0,0,1,60.64,76.93Z" transform="translate(-12.93 -10)" style="fill: #231f20"/>
    <path d="M62.41,81.43h.71a1.24,1.24,0,0,0,1.38,1.32c.77,0,1.23-.4,1.23-1.07,0-1.54-3.24-1-3.24-3.13a1.7,1.7,0,0,1,1.9-1.69,1.83,1.83,0,0,1,2,1.93h-.71a1.14,1.14,0,0,0-1.24-1.25c-.75,0-1.18.38-1.18,1,0,1.48,3.24.91,3.24,3.13a1.75,1.75,0,0,1-2,1.74A1.94,1.94,0,0,1,62.41,81.43Z" transform="translate(-12.93 -10)" style="fill: #231f20"/>
    <path d="M72.64,81.17V79.1a2,2,0,0,1,2-2.24,2,2,0,0,1,2.09,2.24H76c0-1.06-.52-1.55-1.37-1.55s-1.3.49-1.3,1.55v2.07c0,1.06.5,1.55,1.3,1.55S76,82.23,76,81.17h.72a2,2,0,0,1-2.1,2.25A2,2,0,0,1,72.64,81.17Z" transform="translate(-12.93 -10)" style="fill: #231f20"/>
    <path d="M83,78.94V83.3h-.61l-.06-.6a1.7,1.7,0,0,1-1.45.74,1.84,1.84,0,0,1-2-1.93c0-1.21.78-1.88,2.16-1.88h1.24V79c0-.93-.43-1.42-1.24-1.42a1.15,1.15,0,0,0-1.26,1.1H79a1.83,1.83,0,0,1,2-1.78A1.86,1.86,0,0,1,83,78.94Zm-.71,2.46V80.29H81c-.92,0-1.41.43-1.41,1.23s.56,1.23,1.38,1.23A1.23,1.23,0,0,0,82.25,81.4Z" transform="translate(-12.93 -10)" style="fill: #231f20"/>
    <path d="M88.73,76.93v.77a2.07,2.07,0,0,0-.79-.14c-.9,0-1.48.72-1.48,1.92V83.3h-.71V77h.59l.12.79h0a1.79,1.79,0,0,1,1.64-.93A2.45,2.45,0,0,1,88.73,76.93Z" transform="translate(-12.93 -10)" style="fill: #231f20"/>
    <path d="M94.6,78.94V83.3H94l-.06-.6a1.7,1.7,0,0,1-1.45.74,1.84,1.84,0,0,1-2-1.93c0-1.21.78-1.88,2.16-1.88h1.24V79c0-.93-.43-1.42-1.24-1.42a1.15,1.15,0,0,0-1.26,1.1h-.71a1.83,1.83,0,0,1,2-1.78A1.86,1.86,0,0,1,94.6,78.94Zm-.71,2.46V80.29H92.62c-.92,0-1.41.43-1.41,1.23s.56,1.23,1.38,1.23A1.23,1.23,0,0,0,93.89,81.4Z" transform="translate(-12.93 -10)" style="fill: #231f20"/>
    <path d="M97.23,81.17V79.1a2,2,0,0,1,2-2.24,2,2,0,0,1,2.08,2.24h-.72c0-1.06-.51-1.55-1.36-1.55S98,78,98,79.1v2.07c0,1.06.49,1.55,1.3,1.55s1.34-.49,1.38-1.55h.72a2,2,0,0,1-2.1,2.25A2,2,0,0,1,97.23,81.17Z" transform="translate(-12.93 -10)" style="fill: #231f20"/>
    <path d="M106.3,82.69v.67h-.36a1.69,1.69,0,0,1-1.78-1.93V77.66h-1V77h1V75.55h.7V77h1.3v.66h-1.3v3.77c0,.82.34,1.26,1.08,1.26Z" transform="translate(-12.93 -10)" style="fill: #231f20"/>
    <path d="M112.58,81.37a2.09,2.09,0,1,1-4.18-.2V79.1a2.09,2.09,0,1,1,4.17,0v1.39h-3.45v.68c0,1.06.51,1.55,1.33,1.55s1.32-.43,1.42-1.35Zm-3.46-2.27v.73h2.74V79.1c0-1.06-.52-1.55-1.38-1.55S109.12,78,109.12,79.1Z" transform="translate(-12.93 -10)" style="fill: #231f20"/>
    <path d="M118.15,76.93v.77a2.12,2.12,0,0,0-.8-.14c-.9,0-1.48.72-1.48,1.92V83.3h-.71V77h.59l.12.79h0a1.79,1.79,0,0,1,1.64-.93A2.58,2.58,0,0,1,118.15,76.93Z" transform="translate(-12.93 -10)" style="fill: #231f20"/>
    <path d="M120.1,75.26a.54.54,0,0,1,.58-.57.53.53,0,0,1,.57.57.54.54,0,0,1-.57.58A.55.55,0,0,1,120.1,75.26Zm.23,1.74H121v6.3h-.71Z" transform="translate(-12.93 -10)" style="fill: #231f20"/>
    <path d="M123.4,81.43h.71a1.25,1.25,0,0,0,1.38,1.32c.78,0,1.24-.4,1.24-1.07,0-1.54-3.24-1-3.24-3.13a1.69,1.69,0,0,1,1.89-1.69,1.83,1.83,0,0,1,2,1.93h-.71a1.15,1.15,0,0,0-1.25-1.25c-.74,0-1.17.38-1.17,1,0,1.48,3.24.91,3.24,3.13a1.75,1.75,0,0,1-2,1.74A1.94,1.94,0,0,1,123.4,81.43Z" transform="translate(-12.93 -10)" style="fill: #231f20"/>
    <path d="M132.38,82.69v.67H132a1.7,1.7,0,0,1-1.79-1.93V77.66h-1V77h1V75.55h.71V77h1.29v.66h-1.29v3.77c0,.82.33,1.26,1.08,1.26Z" transform="translate(-12.93 -10)" style="fill: #231f20"/>
    <path d="M134.38,75.26a.54.54,0,0,1,.58-.57.53.53,0,0,1,.57.57.54.54,0,0,1-.57.58A.55.55,0,0,1,134.38,75.26Zm.23,1.74h.71v6.3h-.71Z" transform="translate(-12.93 -10)" style="fill: #231f20"/>
    <path d="M142.06,77v8.46h-.69V82.73a1.78,1.78,0,0,1-1.47.71c-1.21,0-2-.8-2-2.36V79.27c0-1.6.81-2.41,2-2.41a1.8,1.8,0,0,1,1.49.73l.1-.59Zm-.69,4.08V79.24c0-1.17-.59-1.72-1.31-1.72-.88,0-1.39.51-1.39,1.75v1.81c0,1.2.46,1.7,1.39,1.7S141.37,82.09,141.37,81.08Z" transform="translate(-12.93 -10)" style="fill: #231f20"/>
    <path d="M148.81,77v6.3h-.59l-.12-.78a1.8,1.8,0,0,1-1.63.92c-1,0-1.69-.68-1.69-2.41V77h.7v3.92c0,1.27.34,1.85,1.17,1.85s1.45-.73,1.45-2V77Z" transform="translate(-12.93 -10)" style="fill: #231f20"/>
    <path d="M155.61,81.37a2.09,2.09,0,1,1-4.17-.2V79.1a2.09,2.09,0,1,1,4.16,0v1.39h-3.45v.68c0,1.06.51,1.55,1.34,1.55s1.32-.43,1.41-1.35Zm-3.46-2.27v.73h2.74V79.1c0-1.06-.52-1.55-1.38-1.55S152.15,78,152.15,79.1Z" transform="translate(-12.93 -10)" style="fill: #231f20"/>
    <path d="M62.16,89V97.7h-.58l-.09-.59a1.8,1.8,0,0,1-1.49.73c-1.14,0-2-.81-2-2.41V93.62c0-1.56.74-2.36,2-2.36a1.75,1.75,0,0,1,1.46.7V89Zm-.7,6.44V93.62c0-1-.51-1.7-1.3-1.7s-1.39.5-1.39,1.7v1.81c0,1.24.51,1.75,1.39,1.75C60.88,97.18,61.46,96.63,61.46,95.45Z" transform="translate(-12.93 -10)" style="fill: #231f20"/>
    <path d="M69,95.77a2.09,2.09,0,1,1-4.17-.2V93.5a2.09,2.09,0,1,1,4.16,0v1.39H65.51v.68c0,1.06.5,1.55,1.33,1.55s1.32-.43,1.42-1.35ZM65.51,93.5v.73h2.73V93.5c0-1.06-.51-1.55-1.38-1.55S65.51,92.44,65.51,93.5Z" transform="translate(-12.93 -10)" style="fill: #231f20"/>
    <path d="M75.53,89h.71V97.7h-.71Z" transform="translate(-12.93 -10)" style="fill: #231f20"/>
    <path d="M79.07,89.3h.5l-.25,2.5h-.8Z" transform="translate(-12.93 -10)" style="fill: #231f20"/>
    <path d="M81.53,89.66a.58.58,0,1,1,.58.58A.55.55,0,0,1,81.53,89.66Zm.23,1.74h.71v6.3h-.71Z" transform="translate(-12.93 -10)" style="fill: #ed1c24"/>
    <path d="M92.41,93.69v4H91.7v-4c0-1.32-.39-1.82-1.08-1.82-.85,0-1.44.73-1.44,1.95V97.7h-.7v-4c0-1.32-.42-1.82-1.12-1.82s-1.4.73-1.4,1.95V97.7h-.71V91.4h.59l.11.82a1.67,1.67,0,0,1,1.57-1A1.53,1.53,0,0,1,89,92.47a1.78,1.78,0,0,1,1.75-1.21C91.75,91.26,92.41,92,92.41,93.69Z" transform="translate(-12.93 -10)" style="fill: #ed1c24"/>
    <path d="M98.9,93.34V97.7h-.61l-.06-.6a1.7,1.7,0,0,1-1.45.74,1.84,1.84,0,0,1-2-1.93c0-1.21.78-1.88,2.16-1.88H98.2v-.67c0-.93-.44-1.42-1.25-1.42A1.15,1.15,0,0,0,95.69,93H95a1.83,1.83,0,0,1,2-1.78A1.86,1.86,0,0,1,98.9,93.34Zm-.7,2.46V94.69H96.92c-.92,0-1.41.43-1.41,1.23s.56,1.23,1.38,1.23A1.23,1.23,0,0,0,98.2,95.8Z" transform="translate(-12.93 -10)" style="fill: #ed1c24"/>
    <path d="M105.66,91.4v6.73a1.83,1.83,0,0,1-2,1.88,1.86,1.86,0,0,1-2-1.82h.69a1.19,1.19,0,0,0,1.32,1.16A1.16,1.16,0,0,0,105,98.13V96.91a1.73,1.73,0,0,1-1.39.6,2,2,0,0,1-2-2.25V93.64c0-1.57.82-2.38,2-2.38A1.66,1.66,0,0,1,105,92l.09-.64ZM105,95.26V93.52c0-1.09-.57-1.59-1.27-1.59-.89,0-1.43.5-1.43,1.71v1.62c0,1.07.54,1.57,1.43,1.57S105,96.33,105,95.26Z" transform="translate(-12.93 -10)" style="fill: #ed1c24"/>
    <path d="M112.46,95.77a2.09,2.09,0,1,1-4.17-.2V93.5a2.09,2.09,0,1,1,4.16,0v1.39H109v.68c0,1.06.5,1.55,1.33,1.55s1.32-.43,1.42-1.35ZM109,93.5v.73h2.73V93.5c0-1.06-.51-1.55-1.38-1.55S109,92.44,109,93.5Z" transform="translate(-12.93 -10)" style="fill: #ed1c24"/>
    <path d="M118,99.32c1,0,1.31-.54,1.31-1.5V91.4H120v6.42c0,1.33-.61,2.17-2,2.18Zm1.09-9.65a.54.54,0,0,1,.58-.57.58.58,0,0,1,0,1.15A.55.55,0,0,1,119.05,89.67Z" transform="translate(-12.93 -10)" style="fill: #ed1c24"/>
  </g>
  <g>
    <path d="M12.93,158.89h.79L15,164.14c.2.87.33,1.49.49,2.13h0c.15-.64.29-1.26.49-2.13l1.26-5.25h.79l-2.13,8.4h-.87Z" transform="translate(-12.93 -10)" style="fill: #231f20"/>
    <path d="M23.89,165.36a2,2,0,0,1-2.14,2,2,2,0,0,1-2-2.25v-2.07a2.09,2.09,0,1,1,4.16,0v1.39H20.44v.68c0,1.06.5,1.55,1.33,1.55s1.32-.43,1.41-1.35Zm-3.45-2.27v.73h2.73v-.73c0-1.06-.51-1.55-1.38-1.55S20.44,162,20.44,163.09Z" transform="translate(-12.93 -10)" style="fill: #231f20"/>
    <path d="M26.32,165.16v-2.07a2,2,0,0,1,2-2.24,2,2,0,0,1,2.09,2.24H29.7c0-1.06-.51-1.55-1.37-1.55S27,162,27,163.09v2.07c0,1.06.49,1.55,1.29,1.55s1.35-.49,1.38-1.55h.72a2,2,0,0,1-2.1,2.25A2,2,0,0,1,26.32,165.16Z" transform="translate(-12.93 -10)" style="fill: #231f20"/>
    <path d="M35.39,166.68v.67H35a1.7,1.7,0,0,1-1.79-1.93v-3.77h-1V161h1v-1.45H34V161h1.3v.66H34v3.77c0,.82.34,1.26,1.08,1.26Z" transform="translate(-12.93 -10)" style="fill: #231f20"/>
    <path d="M41.66,165.36a2.09,2.09,0,1,1-4.17-.2v-2.07a2.09,2.09,0,1,1,4.16,0v1.39H38.21v.68c0,1.06.5,1.55,1.33,1.55s1.32-.43,1.42-1.35Zm-3.45-2.27v.73h2.73v-.73c0-1.06-.51-1.55-1.37-1.55S38.21,162,38.21,163.09Z" transform="translate(-12.93 -10)" style="fill: #231f20"/>
    <path d="M48.2,161v6.3h-.58l-.12-.78a1.8,1.8,0,0,1-1.63.92c-1,0-1.7-.68-1.7-2.41v-4h.71v3.92c0,1.27.34,1.85,1.17,1.85s1.45-.73,1.45-2V161Z" transform="translate(-12.93 -10)" style="fill: #231f20"/>
    <path d="M54,160.92v.77a2.1,2.1,0,0,0-.79-.14c-.9,0-1.49.72-1.49,1.92v3.82H51V161h.59l.12.79h0a1.79,1.79,0,0,1,1.64-.93A2.58,2.58,0,0,1,54,160.92Z" transform="translate(-12.93 -10)" style="fill: #231f20"/>
    <path d="M55.74,165.42h.71a1.25,1.25,0,0,0,1.38,1.32c.78,0,1.23-.4,1.23-1.07,0-1.54-3.23-1-3.23-3.13a1.69,1.69,0,0,1,1.89-1.69,1.83,1.83,0,0,1,2,1.93H59a1.15,1.15,0,0,0-1.25-1.25c-.74,0-1.17.38-1.17,1,0,1.48,3.23.91,3.23,3.13a1.75,1.75,0,0,1-2,1.74A1.94,1.94,0,0,1,55.74,165.42Z" transform="translate(-12.93 -10)" style="fill: #231f20"/>
    <path d="M66,165.16v-2.07a2,2,0,0,1,2-2.24,2,2,0,0,1,2.09,2.24h-.72c0-1.06-.52-1.55-1.37-1.55s-1.29.49-1.29,1.55v2.07c0,1.06.49,1.55,1.29,1.55s1.35-.49,1.38-1.55h.72a2,2,0,0,1-2.1,2.25A2,2,0,0,1,66,165.16Z" transform="translate(-12.93 -10)" style="fill: #231f20"/>
    <path d="M76.3,162.93v4.36h-.62l-.06-.6a1.7,1.7,0,0,1-1.45.74,1.84,1.84,0,0,1-2-1.93c0-1.21.78-1.88,2.16-1.88h1.25V163c0-.93-.43-1.42-1.25-1.42a1.15,1.15,0,0,0-1.26,1.1h-.71a1.83,1.83,0,0,1,2-1.78A1.87,1.87,0,0,1,76.3,162.93Zm-.71,2.46v-1.11H74.32c-.93,0-1.42.43-1.42,1.23s.57,1.23,1.38,1.23A1.23,1.23,0,0,0,75.59,165.39Z" transform="translate(-12.93 -10)" style="fill: #231f20"/>
    <path d="M82.07,160.92v.77a2.1,2.1,0,0,0-.79-.14c-.9,0-1.49.72-1.49,1.92v3.82h-.71V161h.59l.12.79h0a1.79,1.79,0,0,1,1.64-.93A2.53,2.53,0,0,1,82.07,160.92Z" transform="translate(-12.93 -10)" style="fill: #231f20"/>
    <path d="M87.94,162.93v4.36h-.62l-.06-.6a1.7,1.7,0,0,1-1.45.74,1.84,1.84,0,0,1-2-1.93c0-1.21.78-1.88,2.16-1.88h1.25V163c0-.93-.43-1.42-1.25-1.42a1.15,1.15,0,0,0-1.26,1.1H84a1.83,1.83,0,0,1,2-1.78A1.87,1.87,0,0,1,87.94,162.93Zm-.71,2.46v-1.11H86c-.93,0-1.42.43-1.42,1.23s.57,1.23,1.38,1.23A1.23,1.23,0,0,0,87.23,165.39Z" transform="translate(-12.93 -10)" style="fill: #231f20"/>
    <path d="M90.57,165.16v-2.07a2,2,0,0,1,2-2.24,2,2,0,0,1,2.09,2.24H94c0-1.06-.52-1.55-1.37-1.55s-1.29.49-1.29,1.55v2.07c0,1.06.49,1.55,1.29,1.55s1.34-.49,1.38-1.55h.72a2,2,0,0,1-2.1,2.25A2,2,0,0,1,90.57,165.16Z" transform="translate(-12.93 -10)" style="fill: #231f20"/>
    <path d="M99.64,166.68v.67h-.36a1.7,1.7,0,0,1-1.79-1.93v-3.77h-1V161h1v-1.45h.71V161h1.29v.66H98.2v3.77c0,.82.33,1.26,1.08,1.26Z" transform="translate(-12.93 -10)" style="fill: #231f20"/>
    <path d="M105.91,165.36a2.09,2.09,0,1,1-4.17-.2v-2.07a2.09,2.09,0,1,1,4.16,0v1.39h-3.44v.68c0,1.06.5,1.55,1.33,1.55s1.32-.43,1.41-1.35Zm-3.45-2.27v.73h2.73v-.73c0-1.06-.51-1.55-1.38-1.55S102.46,162,102.46,163.09Z" transform="translate(-12.93 -10)" style="fill: #231f20"/>
    <path d="M111.48,160.92v.77a2.1,2.1,0,0,0-.79-.14c-.9,0-1.49.72-1.49,1.92v3.82h-.71V161h.59l.12.79h0a1.79,1.79,0,0,1,1.64-.93A2.53,2.53,0,0,1,111.48,160.92Z" transform="translate(-12.93 -10)" style="fill: #231f20"/>
    <path d="M113.44,159.25a.58.58,0,0,1,1.15,0,.58.58,0,1,1-1.15,0Zm.23,1.74h.7v6.3h-.7Z" transform="translate(-12.93 -10)" style="fill: #231f20"/>
    <path d="M116.74,165.42h.71a1.24,1.24,0,0,0,1.37,1.32c.78,0,1.24-.4,1.24-1.07,0-1.54-3.24-1-3.24-3.13a1.7,1.7,0,0,1,1.9-1.69,1.83,1.83,0,0,1,2,1.93H120a1.14,1.14,0,0,0-1.24-1.25c-.75,0-1.18.38-1.18,1,0,1.48,3.24.91,3.24,3.13a1.75,1.75,0,0,1-2,1.74A1.93,1.93,0,0,1,116.74,165.42Z" transform="translate(-12.93 -10)" style="fill: #231f20"/>
    <path d="M125.71,166.68v.67h-.36a1.7,1.7,0,0,1-1.79-1.93v-3.77h-1V161h1v-1.45h.71V161h1.3v.66h-1.3v3.77c0,.82.34,1.26,1.08,1.26Z" transform="translate(-12.93 -10)" style="fill: #231f20"/>
    <path d="M127.72,159.25a.58.58,0,0,1,1.15,0,.58.58,0,1,1-1.15,0ZM128,161h.7v6.3H128Z" transform="translate(-12.93 -10)" style="fill: #231f20"/>
    <path d="M135.4,161v8.46h-.7v-2.73a1.78,1.78,0,0,1-1.46.71c-1.22,0-2-.8-2-2.36v-1.81c0-1.6.82-2.41,2-2.41a1.77,1.77,0,0,1,1.48.73l.1-.59Zm-.7,4.08v-1.84c0-1.17-.59-1.72-1.31-1.72S132,162,132,163.26v1.81c0,1.2.47,1.7,1.39,1.7S134.7,166.08,134.7,165.07Z" transform="translate(-12.93 -10)" style="fill: #231f20"/>
    <path d="M142.14,161v6.3h-.59l-.12-.78a1.78,1.78,0,0,1-1.63.92c-1,0-1.69-.68-1.69-2.41v-4h.71v3.92c0,1.27.33,1.85,1.16,1.85s1.45-.73,1.45-2V161Z" transform="translate(-12.93 -10)" style="fill: #231f20"/>
    <path d="M148.94,165.36a2.09,2.09,0,1,1-4.17-.2v-2.07a2.09,2.09,0,1,1,4.16,0v1.39h-3.44v.68c0,1.06.5,1.55,1.33,1.55s1.32-.43,1.41-1.35Zm-3.45-2.27v.73h2.73v-.73c0-1.06-.51-1.55-1.38-1.55S145.49,162,145.49,163.09Z" transform="translate(-12.93 -10)" style="fill: #231f20"/>
    <path d="M27.13,173v8.69h-.58l-.1-.59a1.77,1.77,0,0,1-1.48.73c-1.14,0-2-.81-2-2.41v-1.81c0-1.56.75-2.36,2-2.36a1.77,1.77,0,0,1,1.46.7V173Zm-.7,6.44v-1.83c0-1-.52-1.7-1.31-1.7s-1.39.5-1.39,1.7v1.81c0,1.24.52,1.75,1.39,1.75C25.84,181.17,26.43,180.62,26.43,179.44Z" transform="translate(-12.93 -10)" style="fill: #231f20"/>
    <path d="M33.93,179.76a2.09,2.09,0,1,1-4.17-.2v-2.07a2.09,2.09,0,1,1,4.16,0v1.39H30.48v.68c0,1.06.5,1.55,1.33,1.55s1.32-.43,1.41-1.35Zm-3.45-2.27v.73h2.73v-.73c0-1.06-.52-1.55-1.38-1.55S30.48,176.43,30.48,177.49Z" transform="translate(-12.93 -10)" style="fill: #231f20"/>
    <path d="M36.09,179.82h.71a1.24,1.24,0,0,0,1.38,1.31c.78,0,1.23-.39,1.23-1.06,0-1.54-3.23-1-3.23-3.13a1.69,1.69,0,0,1,1.89-1.69,1.83,1.83,0,0,1,2,1.93h-.71a1.15,1.15,0,0,0-1.25-1.25c-.74,0-1.17.38-1.17,1,0,1.48,3.23.91,3.23,3.13a1.75,1.75,0,0,1-2,1.74A1.94,1.94,0,0,1,36.09,179.82Z" transform="translate(-12.93 -10)" style="fill: #231f20"/>
    <path d="M46.33,179.56v-2.07a2,2,0,0,1,2-2.24,2,2,0,0,1,2.09,2.24h-.72c0-1.06-.52-1.55-1.37-1.55s-1.29.49-1.29,1.55v2.07c0,1.06.49,1.55,1.29,1.55s1.35-.49,1.38-1.55h.72a2,2,0,0,1-2.1,2.25A2,2,0,0,1,46.33,179.56Z" transform="translate(-12.93 -10)" style="fill: #231f20"/>
    <path d="M56.84,177.88v3.81h-.71V178c0-1.46-.37-2-1.16-2s-1.45.73-1.45,2v3.81h-.71v-8.64h.71v3.13a1.78,1.78,0,0,1,1.63-.93C56.23,175.25,56.84,176,56.84,177.88Z" transform="translate(-12.93 -10)" style="fill: #231f20"/>
    <path d="M63.33,177.33v4.36h-.61l-.06-.6a1.73,1.73,0,0,1-1.45.74,1.84,1.84,0,0,1-2-1.93c0-1.21.78-1.88,2.15-1.88h1.25v-.67c0-.93-.43-1.42-1.25-1.42a1.14,1.14,0,0,0-1.25,1.1h-.71a1.82,1.82,0,0,1,2-1.78A1.86,1.86,0,0,1,63.33,177.33Zm-.71,2.46v-1.11H61.35c-.92,0-1.41.43-1.41,1.23s.56,1.22,1.37,1.22A1.22,1.22,0,0,0,62.62,179.79Z" transform="translate(-12.93 -10)" style="fill: #231f20"/>
    <path d="M70.15,177.66v4h-.71v-3.92c0-1.28-.34-1.85-1.17-1.85s-1.45.73-1.45,2v3.82h-.7v-6.3h.58l.12.78a1.8,1.8,0,0,1,1.63-.92C69.47,175.25,70.15,175.93,70.15,177.66Z" transform="translate(-12.93 -10)" style="fill: #231f20"/>
    <path d="M76.83,175.39v6.73a1.83,1.83,0,0,1-2,1.88,1.86,1.86,0,0,1-2-1.82h.69a1.19,1.19,0,0,0,1.32,1.16,1.16,1.16,0,0,0,1.29-1.22V180.9a1.73,1.73,0,0,1-1.39.6,2,2,0,0,1-2-2.25v-1.62c0-1.57.82-2.38,2-2.38a1.66,1.66,0,0,1,1.44.78l.09-.64Zm-.71,3.86v-1.74c0-1.09-.57-1.59-1.27-1.59-.89,0-1.43.5-1.43,1.71v1.62c0,1.07.54,1.57,1.43,1.57S76.12,180.32,76.12,179.25Z" transform="translate(-12.93 -10)" style="fill: #231f20"/>
    <path d="M83.63,179.76a2.09,2.09,0,1,1-4.17-.2v-2.07a2.09,2.09,0,1,1,4.16,0v1.39H80.18v.68c0,1.06.5,1.55,1.33,1.55s1.32-.43,1.42-1.35Zm-3.45-2.27v.73h2.73v-.73c0-1.06-.51-1.55-1.38-1.55S80.18,176.43,80.18,177.49Z" transform="translate(-12.93 -10)" style="fill: #231f20"/>
    <path d="M93.38,177.68v4h-.71v-3.95c0-1.32-.4-1.82-1.08-1.82-.85,0-1.44.73-1.44,2v3.82h-.71v-3.95c0-1.32-.42-1.82-1.11-1.82-.84,0-1.41.73-1.41,2v3.82h-.7v-6.3h.58l.11.82a1.68,1.68,0,0,1,1.57-1A1.51,1.51,0,0,1,90,176.46a1.78,1.78,0,0,1,1.75-1.21C92.72,175.25,93.38,176,93.38,177.68Z" transform="translate(-12.93 -10)" style="fill: #231f20"/>
    <path d="M100.11,179.76a2.09,2.09,0,1,1-4.17-.2v-2.07a2.09,2.09,0,1,1,4.16,0v1.39H96.66v.68c0,1.06.5,1.55,1.33,1.55s1.32-.43,1.41-1.35Zm-3.45-2.27v.73h2.73v-.73c0-1.06-.52-1.55-1.38-1.55S96.66,176.43,96.66,177.49Z" transform="translate(-12.93 -10)" style="fill: #231f20"/>
    <path d="M106.72,177.66v4H106v-3.92c0-1.28-.33-1.85-1.16-1.85s-1.45.73-1.45,2v3.82h-.71v-6.3h.59l.12.78a1.78,1.78,0,0,1,1.63-.92C106.05,175.25,106.72,175.93,106.72,177.66Z" transform="translate(-12.93 -10)" style="fill: #231f20"/>
    <path d="M112,181.08v.67h-.36a1.69,1.69,0,0,1-1.79-1.93v-3.77h-1v-.66h1v-1.45h.71v1.45h1.29v.66h-1.29v3.77c0,.82.33,1.26,1.08,1.26Z" transform="translate(-12.93 -10)" style="fill: #231f20"/>
    <path d="M113.78,179.82h.71a1.23,1.23,0,0,0,1.38,1.31c.78,0,1.23-.39,1.23-1.06,0-1.54-3.24-1-3.24-3.13a1.7,1.7,0,0,1,1.9-1.69,1.83,1.83,0,0,1,1.95,1.93H117a1.15,1.15,0,0,0-1.25-1.25c-.75,0-1.18.38-1.18,1,0,1.48,3.24.91,3.24,3.13a1.75,1.75,0,0,1-1.95,1.74A1.94,1.94,0,0,1,113.78,179.82Z" transform="translate(-12.93 -10)" style="fill: #231f20"/>
    <path d="M123.51,173.29h.79l1.26,5.25c.21.87.34,1.49.49,2.13h0c.16-.64.29-1.26.49-2.13l1.26-5.25h.79l-2.13,8.4h-.86Z" transform="translate(-12.93 -10)" style="fill: #ed2024"/>
    <path d="M130.67,179.31v-3.64a2.29,2.29,0,1,1,4.57-.1h-.72c-.08-1.19-.66-1.75-1.6-1.75s-1.53.6-1.53,1.85v3.64c0,1.25.65,1.85,1.58,1.85s1.51-.59,1.63-1.75h.72a2.3,2.3,0,0,1-2.35,2.42A2.24,2.24,0,0,1,130.67,179.31Z" transform="translate(-12.93 -10)" style="fill: #ed2024"/>
    <path d="M137.63,179.31v-3.64a2.29,2.29,0,1,1,4.57-.1h-.72c-.08-1.19-.66-1.75-1.6-1.75s-1.53.6-1.53,1.85v3.64c0,1.25.65,1.85,1.58,1.85s1.51-.59,1.63-1.75h.72a2.3,2.3,0,0,1-2.35,2.42A2.24,2.24,0,0,1,137.63,179.31Z" transform="translate(-12.93 -10)" style="fill: #ed2024"/>
  </g>
  <g>
    <path d="M364.6,213.94v4.35H364l-.06-.6a1.74,1.74,0,0,1-1.46.74,1.84,1.84,0,0,1-2-1.93c0-1.21.78-1.88,2.16-1.88h1.25V214c0-.93-.43-1.42-1.25-1.42a1.15,1.15,0,0,0-1.26,1.11h-.71a1.84,1.84,0,0,1,2-1.79A1.86,1.86,0,0,1,364.6,213.94Zm-.71,2.45v-1.11h-1.27c-.93,0-1.42.43-1.42,1.23s.57,1.23,1.38,1.23A1.23,1.23,0,0,0,363.89,216.39Z" transform="translate(-12.93 -10)" style="fill: #231f20"/>
    <path d="M366.51,212h.74l1,3.68c.13.52.32,1.35.4,1.7h.05c.09-.35.28-1.18.41-1.7l1-3.68h.74l-1.79,6.3h-.77Z" transform="translate(-12.93 -10)" style="fill: #231f20"/>
    <path d="M377,216.36a2.09,2.09,0,1,1-4.18-.19v-2.08a2.09,2.09,0,1,1,4.16,0v1.39H373.5v.69c0,1.05.51,1.54,1.33,1.54s1.32-.43,1.42-1.35Zm-3.46-2.27v.73h2.74v-.73c0-1.05-.52-1.55-1.38-1.55S373.5,213,373.5,214.09Z" transform="translate(-12.93 -10)" style="fill: #231f20"/>
    <path d="M379.38,216.17v-2.08a2,2,0,0,1,2-2.24,2,2,0,0,1,2.08,2.24h-.72c0-1.05-.51-1.55-1.36-1.55s-1.3.5-1.3,1.55v2.08c0,1.05.49,1.54,1.3,1.54s1.34-.49,1.38-1.54h.72a2,2,0,0,1-2.1,2.24A2,2,0,0,1,379.38,216.17Z" transform="translate(-12.93 -10)" style="fill: #231f20"/>
    <path d="M392.57,217.27v1.09h-.44a1.9,1.9,0,0,1-2-2.11V213h-.88V212h.88v-1.5h1.15V212h1.18V213h-1.18v3.24c0,.69.29,1,.92,1Z" transform="translate(-12.93 -10)" style="fill: #ed2024"/>
    <path d="M399.05,216.31a2.21,2.21,0,1,1-4.42-.26v-1.89a2.2,2.2,0,1,1,4.39,0v1.41H395.8v.48c0,.86.37,1.26,1,1.26s1-.32,1.06-1Zm-3.25-2.16v.54h2.07v-.54c0-.86-.38-1.25-1.05-1.25S395.8,213.29,395.8,214.15Z" transform="translate(-12.93 -10)" style="fill: #ed2024"/>
    <path d="M408.68,214.33v4h-1.15v-3.92c0-1.06-.3-1.45-.84-1.45s-1.05.52-1.05,1.46v3.91h-1.16v-3.92c0-1.06-.32-1.45-.86-1.45s-1,.52-1,1.46v3.91h-1.15V212h.82l.12.71a1.67,1.67,0,0,1,1.51-.87,1.52,1.52,0,0,1,1.48,1,1.69,1.69,0,0,1,1.6-1C408,211.81,408.68,212.64,408.68,214.33Z" transform="translate(-12.93 -10)" style="fill: #ed2024"/>
    <path d="M415.58,214.27V216c0,1.53-.79,2.42-2,2.42a1.68,1.68,0,0,1-1.21-.5v2.52h-1.14V212h.84l.08.58a1.89,1.89,0,0,1,1.43-.72C414.77,211.82,415.58,212.72,415.58,214.27Zm-1.18,0c0-.93-.38-1.35-1-1.35s-1,.44-1,1.34V216c0,.83.38,1.33,1,1.33s1-.41,1-1.33Z" transform="translate(-12.93 -10)" style="fill: #ed2024"/>
    <path d="M417.63,216.35h1.15a1,1,0,0,0,1.09,1c.61,0,1-.3,1-.8,0-1.27-3.11-.84-3.11-3a1.8,1.8,0,0,1,2-1.77,2,2,0,0,1,2.1,2h-1.14a.87.87,0,0,0-1-1c-.55,0-.89.27-.89.72,0,1.2,3.12.73,3.12,3a1.85,1.85,0,0,1-2.1,1.85A2.07,2.07,0,0,1,417.63,216.35Z" transform="translate(-12.93 -10)" style="fill: #ed2024"/>
    <path d="M424.37,217.51V210.7a2,2,0,0,1,2.11-2.25v1.1a1,1,0,0,0-1,1.09v6.92a1,1,0,0,0,1,1.1v1.09A2,2,0,0,1,424.37,217.51Z" transform="translate(-12.93 -10)" style="fill: #ed2024"/>
    <path d="M428.77,210.18a.74.74,0,0,1,1.48,0,.72.72,0,0,1-.74.73A.71.71,0,0,1,428.77,210.18Zm.16,1.79h1.16v6.32h-1.16Z" transform="translate(-12.93 -10)" style="fill: #ed2024"/>
    <path d="M439.94,214.33v4h-1.15v-3.92c0-1.06-.3-1.45-.84-1.45s-1.05.52-1.05,1.46v3.91h-1.16v-3.92c0-1.06-.32-1.45-.86-1.45s-1,.52-1,1.46v3.91h-1.15V212h.82l.12.71a1.67,1.67,0,0,1,1.51-.87,1.52,1.52,0,0,1,1.48,1,1.68,1.68,0,0,1,1.59-1C439.28,211.81,439.94,212.64,439.94,214.33Z" transform="translate(-12.93 -10)" style="fill: #ed2024"/>
    <path d="M446.53,214.09v4.2h-.95l-.08-.6a1.54,1.54,0,0,1-1.4.75,1.83,1.83,0,0,1-2-1.95c0-1.28.89-1.94,2.3-1.94h.92v-.46c0-.74-.28-1.16-.91-1.16a.88.88,0,0,0-1,.84h-1.17a2,2,0,0,1,2.15-2C445.84,211.81,446.53,212.64,446.53,214.09Zm-1.16,1.43h-.92c-.71,0-1.12.33-1.12,1a.88.88,0,0,0,1,.92,1,1,0,0,0,1-1.06Z" transform="translate(-12.93 -10)" style="fill: #ed2024"/>
    <path d="M453.37,212v6.64a2.12,2.12,0,0,1-4.23,0h1.14a.88.88,0,0,0,1,.88.86.86,0,0,0,.95-.91v-1A1.85,1.85,0,0,1,451,218a2.07,2.07,0,0,1-2-2.32v-1.51c0-1.49.84-2.4,2-2.4a1.76,1.76,0,0,1,1.42.66l.1-.5Zm-1.17,3.75v-1.58c0-.82-.42-1.21-1-1.21s-1,.39-1,1.28v1.51c0,.82.38,1.21,1,1.21S452.2,216.54,452.2,215.72Z" transform="translate(-12.93 -10)" style="fill: #ed2024"/>
    <path d="M460.24,216.31a2.11,2.11,0,0,1-2.27,2.11,2.08,2.08,0,0,1-2.15-2.37v-1.89a2.2,2.2,0,1,1,4.39,0v1.41H457v.48c0,.86.37,1.26,1,1.26s1-.32,1.07-1ZM457,214.15v.54h2.07v-.54c0-.86-.38-1.25-1.06-1.25S457,213.29,457,214.15Z" transform="translate(-12.93 -10)" style="fill: #ed2024"/>
    <path d="M466.24,210.18a.71.71,0,0,1,.73-.74.74.74,0,1,1,0,1.47A.7.7,0,0,1,466.24,210.18Zm.15,1.79h1.17v6.32h-1.17Z" transform="translate(-12.93 -10)" style="fill: #ed2024"/>
    <path d="M470,218.66c.6,0,.94-.42.94-1.1v-6.92c0-.67-.34-1.07-.94-1.09v-1.1a2,2,0,0,1,2.11,2.25v6.81a2,2,0,0,1-2.11,2.24Z" transform="translate(-12.93 -10)" style="fill: #ed2024"/>
    <path d="M482.58,213.53l-2.95,1.13,2.95,1.13v1.1l-4.13-1.65v-1.16l4.13-1.64Z" transform="translate(-12.93 -10)" style="fill: #ed2024"/>
    <path d="M491.58,217.27v1.09h-.44a1.9,1.9,0,0,1-2-2.11V213h-.88V212h.88v-1.5h1.15V212h1.18V213h-1.18v3.24c0,.69.29,1,.92,1Z" transform="translate(-12.93 -10)" style="fill: #ed2024"/>
    <path d="M498.06,216.31a2.1,2.1,0,0,1-2.27,2.11,2.08,2.08,0,0,1-2.14-2.37v-1.89a2.08,2.08,0,0,1,2.17-2.35,2.1,2.1,0,0,1,2.22,2.35v1.41h-3.23v.48c0,.86.37,1.26,1,1.26s1-.32,1.06-1Zm-3.25-2.16v.54h2.07v-.54c0-.86-.38-1.25-1.05-1.25S494.81,213.29,494.81,214.15Z" transform="translate(-12.93 -10)" style="fill: #ed2024"/>
    <path d="M507.69,214.33v4h-1.15v-3.92c0-1.06-.3-1.45-.84-1.45s-1.05.52-1.05,1.46v3.91H503.5v-3.92c0-1.06-.33-1.45-.87-1.45s-1,.52-1,1.46v3.91h-1.15V212h.82l.12.71a1.68,1.68,0,0,1,1.52-.87,1.52,1.52,0,0,1,1.47,1,1.69,1.69,0,0,1,1.6-1C507,211.81,507.69,212.64,507.69,214.33Z" transform="translate(-12.93 -10)" style="fill: #ed2024"/>
    <path d="M514.59,214.27V216c0,1.53-.79,2.42-2,2.42a1.68,1.68,0,0,1-1.21-.5v2.52h-1.14V212h.84l.08.58a1.91,1.91,0,0,1,1.43-.72C513.78,211.82,514.59,212.72,514.59,214.27Zm-1.18,0c0-.93-.37-1.35-1-1.35s-1,.44-1,1.34V216c0,.83.38,1.33,1,1.33s1-.41,1-1.33Z" transform="translate(-12.93 -10)" style="fill: #ed2024"/>
    <path d="M516.64,216.35h1.15a1,1,0,0,0,1.09,1c.61,0,1-.3,1-.8,0-1.27-3.11-.84-3.11-3a1.8,1.8,0,0,1,2-1.77,1.94,1.94,0,0,1,2.1,2h-1.14a.87.87,0,0,0-1-1c-.55,0-.89.27-.89.72,0,1.2,3.12.73,3.12,3a1.85,1.85,0,0,1-2.1,1.85A2.07,2.07,0,0,1,516.64,216.35Z" transform="translate(-12.93 -10)" style="fill: #ed2024"/>
    <path d="M523.38,217.51V210.7a2,2,0,0,1,2.11-2.25v1.1a1,1,0,0,0-1,1.09v6.92a1,1,0,0,0,1,1.1v1.09A2,2,0,0,1,523.38,217.51Z" transform="translate(-12.93 -10)" style="fill: #ed2024"/>
    <path d="M527.79,210.18a.7.7,0,0,1,.73-.74.74.74,0,1,1,0,1.47A.7.7,0,0,1,527.79,210.18Zm.15,1.79h1.16v6.32h-1.16Z" transform="translate(-12.93 -10)" style="fill: #ed2024"/>
    <path d="M539,214.33v4H537.8v-3.92c0-1.06-.3-1.45-.84-1.45s-1.05.52-1.05,1.46v3.91h-1.16v-3.92c0-1.06-.32-1.45-.86-1.45s-1,.52-1,1.46v3.91H531.7V212h.82l.12.71a1.68,1.68,0,0,1,1.52-.87,1.52,1.52,0,0,1,1.47,1,1.69,1.69,0,0,1,1.6-1C538.29,211.81,539,212.64,539,214.33Z" transform="translate(-12.93 -10)" style="fill: #ed2024"/>
    <path d="M545.54,214.09v4.2h-.95l-.08-.6a1.54,1.54,0,0,1-1.4.75,1.82,1.82,0,0,1-1.94-1.95c0-1.28.88-1.94,2.29-1.94h.92v-.46c0-.74-.28-1.16-.91-1.16a.88.88,0,0,0-1,.84h-1.17a2,2,0,0,1,2.15-2C544.85,211.81,545.54,212.64,545.54,214.09Zm-1.16,1.43h-.92c-.71,0-1.12.33-1.12,1a.88.88,0,0,0,1,.92,1,1,0,0,0,1-1.06Z" transform="translate(-12.93 -10)" style="fill: #ed2024"/>
    <path d="M552.38,212v6.64a2.12,2.12,0,0,1-4.23,0h1.14a.88.88,0,0,0,1,.88.86.86,0,0,0,1-.91v-1A1.85,1.85,0,0,1,550,218a2.07,2.07,0,0,1-2-2.32v-1.51c0-1.49.84-2.4,2-2.4a1.76,1.76,0,0,1,1.42.66l.1-.5Zm-1.17,3.75v-1.58c0-.82-.42-1.21-1-1.21s-1,.39-1,1.28v1.51c0,.82.38,1.21,1,1.21S551.21,216.54,551.21,215.72Z" transform="translate(-12.93 -10)" style="fill: #ed2024"/>
    <path d="M559.25,216.31a2.11,2.11,0,0,1-2.27,2.11,2.08,2.08,0,0,1-2.15-2.37v-1.89a2.2,2.2,0,1,1,4.39,0v1.41H556v.48c0,.86.37,1.26,1,1.26s1-.32,1.07-1ZM556,214.15v.54h2.07v-.54c0-.86-.38-1.25-1.06-1.25S556,213.29,556,214.15Z" transform="translate(-12.93 -10)" style="fill: #ed2024"/>
    <path d="M564.53,219.49c.8,0,1.13-.41,1.13-1.2V212h1.15v6.27a2.09,2.09,0,0,1-2.28,2.36Zm1-9.3a.7.7,0,0,1,.73-.74.74.74,0,0,1,0,1.47A.7.7,0,0,1,565.5,210.19Z" transform="translate(-12.93 -10)" style="fill: #ed2024"/>
    <path d="M569.41,218.66a1,1,0,0,0,1-1.1v-6.92a1,1,0,0,0-1-1.09v-1.1a2,2,0,0,1,2.11,2.25v6.81a2,2,0,0,1-2.11,2.24Z" transform="translate(-12.93 -10)" style="fill: #ed2024"/>
  </g>
  <g>
    <g>
      <path d="M190.71,22.81h1.19l1.89,7.89c.3,1.3.5,2.23.73,3.19h.08c.23-1,.43-1.89.74-3.19l1.89-7.89h1.18l-3.2,12.61h-1.3Z" transform="translate(-12.93 -10)" style="fill: #231f20"/>
      <path d="M201,27.38a.54.54,0,0,1,.58-.57.53.53,0,0,1,.57.57.54.54,0,0,1-.57.58A.55.55,0,0,1,201,27.38Zm.23,1.74h.71v6.3h-.71Z" transform="translate(-12.93 -10)" style="fill: #231f20"/>
      <path d="M206.31,27v8.4h-.72V28l-1.38,1.15v-.91L205.59,27Z" transform="translate(-12.93 -10)" style="fill: #231f20"/>
    </g>
    <g>
      <path d="M229,22.81h1.19l1.89,7.89c.31,1.3.51,2.23.74,3.19h.07c.24-1,.43-1.89.74-3.19l1.89-7.89h1.19l-3.21,12.61h-1.29Z" transform="translate(-12.93 -10)" style="fill: #231f20"/>
      <path d="M239.25,27.38a.58.58,0,0,1,1.15,0,.58.58,0,1,1-1.15,0Zm.23,1.74h.7v6.3h-.7Z" transform="translate(-12.93 -10)" style="fill: #231f20"/>
      <path d="M242.56,34.82c0-2.86,3.24-4,3.24-6a1.17,1.17,0,0,0-1.25-1.23c-.73,0-1.2.48-1.22,1.43h-.72a2,2,0,0,1,1.94-2.1,1.86,1.86,0,0,1,2,1.9c0,2.4-3.24,3.51-3.24,5.95h3.32v.67h-4Z" transform="translate(-12.93 -10)" style="fill: #231f20"/>
    </g>
    <g>
      <path d="M268,22.81h1.19l1.89,7.89c.31,1.3.51,2.23.74,3.19h.07c.24-1,.43-1.89.74-3.19l1.89-7.89h1.19l-3.21,12.61h-1.29Z" transform="translate(-12.93 -10)" style="fill: #231f20"/>
      <path d="M278.25,27.38a.58.58,0,0,1,1.15,0,.58.58,0,1,1-1.15,0Zm.23,1.74h.7v6.3h-.7Z" transform="translate(-12.93 -10)" style="fill: #231f20"/>
      <path d="M285.49,32.62v.61c0,1.52-.82,2.32-2,2.32s-2.07-.76-2.07-2.35h.72c.05,1.28.61,1.65,1.33,1.65s1.35-.49,1.35-1.62v-.61a1.32,1.32,0,0,0-1.45-1.48h-.76v-.6l1.79-2.85h-2.69V27h3.61v.52l-1.91,3h0A1.88,1.88,0,0,1,285.49,32.62Z" transform="translate(-12.93 -10)" style="fill: #231f20"/>
    </g>
    <g>
      <path d="M307,22.81h1.19l1.89,7.89c.3,1.3.5,2.23.74,3.19h.07c.23-1,.43-1.89.73-3.19l1.9-7.89h1.18l-3.2,12.61h-1.3Z" transform="translate(-12.93 -10)" style="fill: #231f20"/>
      <path d="M317.27,27.38a.54.54,0,0,1,.58-.57.53.53,0,0,1,.57.57.54.54,0,0,1-.57.58A.55.55,0,0,1,317.27,27.38Zm.23,1.74h.71v6.3h-.71Z" transform="translate(-12.93 -10)" style="fill: #231f20"/>
      <path d="M325.06,33.17h-1v2.25h-.72V33.17h-3v-.39L322.28,27H323l-1.85,5.46h2.14V29.54H324v2.94h1Z" transform="translate(-12.93 -10)" style="fill: #231f20"/>
    </g>
    <g>
      <path d="M346.07,22.81h1.19l1.89,7.89c.31,1.3.51,2.23.74,3.19H350c.24-1,.44-1.89.74-3.19l1.89-7.89h1.19l-3.2,12.61h-1.3Z" transform="translate(-12.93 -10)" style="fill: #231f20"/>
      <path d="M356.34,27.38a.58.58,0,1,1,.58.58A.55.55,0,0,1,356.34,27.38Zm.23,1.74h.71v6.3h-.71Z" transform="translate(-12.93 -10)" style="fill: #231f20"/>
      <path d="M363.63,32.08v.84c0,1.81-.67,2.62-1.87,2.62s-1.88-.76-1.93-2.11h.71c0,1,.47,1.41,1.22,1.41s1.15-.49,1.15-1.92V32.1c0-1.08-.34-1.6-1.17-1.6a1.12,1.12,0,0,0-1.12.91h-.68V27h3.45v.67h-2.74v2.59a1.59,1.59,0,0,1,1.18-.46C362.94,29.82,363.63,30.62,363.63,32.08Z" transform="translate(-12.93 -10)" style="fill: #231f20"/>
    </g>
    <g>
      <path d="M384.91,22.81h1.18L388,30.7c.31,1.3.51,2.23.74,3.19h.07c.24-1,.44-1.89.74-3.19l1.89-7.89h1.19l-3.2,12.61h-1.3Z" transform="translate(-12.93 -10)" style="fill: #231f20"/>
      <path d="M395.17,27.38a.58.58,0,1,1,.58.58A.55.55,0,0,1,395.17,27.38Zm.23,1.74h.71v6.3h-.71Z" transform="translate(-12.93 -10)" style="fill: #231f20"/>
      <path d="M402.84,32v1.47a2,2,0,1,1-4,0V29a1.94,1.94,0,0,1,2-2.05,2,2,0,0,1,2,2h-.72a1.26,1.26,0,0,0-1.27-1.29,1.23,1.23,0,0,0-1.29,1.34v1.52a1.85,1.85,0,0,1,1.36-.56A2,2,0,0,1,402.84,32Zm-.72,0a1.3,1.3,0,0,0-1.37-1.36A1.24,1.24,0,0,0,399.51,32v1.44a1.31,1.31,0,1,0,2.61,0Z" transform="translate(-12.93 -10)" style="fill: #231f20"/>
    </g>
    <g>
      <path d="M424.41,22.81h1.19l1.89,7.89c.31,1.3.5,2.23.74,3.19h.07c.23-1,.43-1.89.74-3.19l1.89-7.89h1.19l-3.21,12.61h-1.29Z" transform="translate(-12.93 -10)" style="fill: #231f20"/>
      <path d="M434.68,27.38a.53.53,0,0,1,.57-.57.54.54,0,0,1,.58.57.55.55,0,0,1-.58.58A.54.54,0,0,1,434.68,27.38Zm.22,1.74h.71v6.3h-.71Z" transform="translate(-12.93 -10)" style="fill: #231f20"/>
      <path d="M440.63,27.72h-3V27h3.87v.4l-2.32,8h-.75Z" transform="translate(-12.93 -10)" style="fill: #231f20"/>
    </g>
    <g>
      <path d="M462.81,22.81H464l1.89,7.89c.31,1.3.5,2.23.74,3.19h.07c.23-1,.43-1.89.74-3.19l1.89-7.89h1.19l-3.21,12.61H466Z" transform="translate(-12.93 -10)" style="fill: #231f20"/>
      <path d="M473.08,27.38a.53.53,0,0,1,.57-.57.54.54,0,0,1,.58.57.55.55,0,0,1-.58.58A.54.54,0,0,1,473.08,27.38Zm.22,1.74H474v6.3h-.71Z" transform="translate(-12.93 -10)" style="fill: #231f20"/>
      <path d="M480.87,33.06v.2a2.14,2.14,0,1,1-4.27,0v-.2a2,2,0,0,1,1.11-2,2.08,2.08,0,0,1-1-1.89v-.14a2,2,0,1,1,4,0v.14a2.08,2.08,0,0,1-1,1.89A2,2,0,0,1,480.87,33.06Zm-.71,0c0-1-.53-1.61-1.42-1.61s-1.42.6-1.42,1.61v.2a1.43,1.43,0,1,0,2.84,0Zm-2.69-3.86c0,1,.47,1.55,1.27,1.55S480,30.18,480,29.2v-.14c0-.92-.47-1.46-1.27-1.46s-1.27.54-1.27,1.46Z" transform="translate(-12.93 -10)" style="fill: #231f20"/>
    </g>
    <g>
      <path d="M521.38,22.81h1.19l1.89,7.89c.31,1.3.51,2.23.74,3.19h.07c.24-1,.44-1.89.74-3.19l1.89-7.89h1.19l-3.21,12.61h-1.29Z" transform="translate(-12.93 -10)" style="fill: #231f20"/>
      <path d="M531.65,27.38a.58.58,0,0,1,1.15,0,.58.58,0,1,1-1.15,0Zm.23,1.74h.7v6.3h-.7Z" transform="translate(-12.93 -10)" style="fill: #231f20"/>
      <path d="M539.27,29v4.48a1.94,1.94,0,0,1-2,2,2,2,0,0,1-2-2H536a1.26,1.26,0,0,0,1.27,1.29,1.23,1.23,0,0,0,1.29-1.34V32a1.85,1.85,0,0,1-1.36.56,2,2,0,0,1-2-2.06V29a2,2,0,1,1,4,0Zm-.72,1.44V29a1.31,1.31,0,1,0-2.61,0v1.47a1.3,1.3,0,0,0,1.37,1.36A1.24,1.24,0,0,0,538.55,30.45Z" transform="translate(-12.93 -10)" style="fill: #231f20"/>
    </g>
  </g>
  <g>
    <g>
      <path d="M190.46,79.7h1.18l1.89,7.88c.31,1.3.51,2.24.74,3.19h.08c.23-1,.43-1.89.73-3.19L197,79.7h1.19L195,92.3h-1.3Z" transform="translate(-12.93 -10)" style="fill: #231f20"/>
      <path d="M199.92,93.92c1,0,1.31-.54,1.31-1.5V86h.7v6.42c0,1.33-.61,2.17-2,2.18ZM201,84.28a.58.58,0,1,1,.57.57A.54.54,0,0,1,201,84.28Z" transform="translate(-12.93 -10)" style="fill: #231f20"/>
      <path d="M206.56,83.91V92.3h-.72V84.85L204.47,86v-.91l1.37-1.18Z" transform="translate(-12.93 -10)" style="fill: #231f20"/>
    </g>
    <g>
      <path d="M228.73,79.7h1.19l1.89,7.88c.31,1.3.5,2.24.74,3.19h.07c.23-1,.43-1.89.74-3.19l1.89-7.88h1.19l-3.21,12.6h-1.29Z" transform="translate(-12.93 -10)" style="fill: #231f20"/>
      <path d="M238.19,93.92c1,0,1.31-.54,1.31-1.5V86h.71v6.42c0,1.33-.61,2.17-2,2.18Zm1.09-9.64a.58.58,0,1,1,1.16,0,.58.58,0,0,1-1.16,0Z" transform="translate(-12.93 -10)" style="fill: #231f20"/>
      <path d="M242.81,91.7c0-2.85,3.24-4,3.24-6a1.16,1.16,0,0,0-1.25-1.22c-.73,0-1.2.48-1.22,1.42h-.72a2,2,0,0,1,1.94-2.09,1.85,1.85,0,0,1,2,1.89c0,2.4-3.24,3.51-3.24,5.95h3.32v.67h-4Z" transform="translate(-12.93 -10)" style="fill: #231f20"/>
    </g>
    <g>
      <path d="M267.73,79.7h1.19l1.89,7.88c.31,1.3.5,2.24.74,3.19h.07c.23-1,.43-1.89.74-3.19l1.89-7.88h1.19l-3.21,12.6h-1.29Z" transform="translate(-12.93 -10)" style="fill: #231f20"/>
      <path d="M277.19,93.92c1,0,1.31-.54,1.31-1.5V86h.71v6.42c0,1.33-.61,2.17-2,2.18Zm1.1-9.64a.54.54,0,0,1,.57-.58.55.55,0,0,1,.58.58.54.54,0,0,1-.58.57A.53.53,0,0,1,278.29,84.28Z" transform="translate(-12.93 -10)" style="fill: #231f20"/>
      <path d="M285.75,89.51v.61c0,1.51-.83,2.31-2,2.31s-2.07-.75-2.07-2.35h.72c.05,1.29.62,1.66,1.34,1.66s1.34-.49,1.34-1.62v-.61A1.32,1.32,0,0,0,283.59,88h-.76v-.6l1.79-2.84h-2.69v-.67h3.61v.51l-1.9,3h0A1.88,1.88,0,0,1,285.75,89.51Z" transform="translate(-12.93 -10)" style="fill: #231f20"/>
    </g>
    <g>
      <path d="M306.76,79.7h1.18l1.89,7.88c.31,1.3.51,2.24.74,3.19h.08c.23-1,.43-1.89.73-3.19l1.89-7.88h1.19l-3.2,12.6H310Z" transform="translate(-12.93 -10)" style="fill: #231f20"/>
      <path d="M316.22,93.92c1,0,1.31-.54,1.31-1.5V86h.7v6.42c0,1.33-.61,2.17-2,2.18Zm1.09-9.64a.58.58,0,1,1,.57.57A.54.54,0,0,1,317.31,84.28Z" transform="translate(-12.93 -10)" style="fill: #231f20"/>
      <path d="M325.31,90.06h-1V92.3h-.72V90.06h-3v-.4l1.95-5.75h.75l-1.84,5.45h2.13V86.42h.72v2.94h1Z" transform="translate(-12.93 -10)" style="fill: #231f20"/>
    </g>
    <g>
      <path d="M345.82,79.7H347l1.89,7.88c.31,1.3.51,2.24.74,3.19h.07c.24-1,.43-1.89.74-3.19l1.89-7.88h1.19l-3.21,12.6H349Z" transform="translate(-12.93 -10)" style="fill: #231f20"/>
      <path d="M355.28,93.92c1,0,1.31-.54,1.31-1.5V86h.71v6.42c0,1.33-.61,2.17-2,2.18Zm1.1-9.64a.54.54,0,0,1,.57-.58.55.55,0,0,1,.58.58.54.54,0,0,1-.58.57A.53.53,0,0,1,356.38,84.28Z" transform="translate(-12.93 -10)" style="fill: #231f20"/>
      <path d="M363.89,89v.84c0,1.81-.68,2.61-1.88,2.61s-1.88-.75-1.93-2.11h.71c0,1,.47,1.42,1.22,1.42s1.16-.5,1.16-1.92V89c0-1.08-.35-1.6-1.18-1.6a1.1,1.1,0,0,0-1.11.91h-.69V83.91h3.46v.67H360.9v2.59a1.57,1.57,0,0,1,1.19-.47C363.19,86.7,363.89,87.5,363.89,89Z" transform="translate(-12.93 -10)" style="fill: #231f20"/>
    </g>
    <g>
      <path d="M384.65,79.7h1.19l1.89,7.88c.31,1.3.51,2.24.74,3.19h.07c.24-1,.43-1.89.74-3.19l1.89-7.88h1.19l-3.21,12.6h-1.29Z" transform="translate(-12.93 -10)" style="fill: #231f20"/>
      <path d="M394.12,93.92c1,0,1.3-.54,1.3-1.5V86h.71v6.42c0,1.33-.61,2.17-2,2.18Zm1.09-9.64a.54.54,0,0,1,.57-.58.55.55,0,0,1,.58.58.54.54,0,0,1-.58.57A.53.53,0,0,1,395.21,84.28Z" transform="translate(-12.93 -10)" style="fill: #231f20"/>
      <path d="M403.09,88.85v1.46a2,2,0,1,1-4,0V85.84a1.93,1.93,0,0,1,2-2,2,2,0,0,1,2,2h-.72a1.26,1.26,0,0,0-1.27-1.3,1.23,1.23,0,0,0-1.28,1.34v1.53a1.8,1.8,0,0,1,1.35-.57A2,2,0,0,1,403.09,88.85Zm-.72,0A1.3,1.3,0,0,0,401,87.48a1.24,1.24,0,0,0-1.23,1.39v1.44a1.31,1.31,0,1,0,2.6,0Z" transform="translate(-12.93 -10)" style="fill: #231f20"/>
    </g>
    <g>
      <path d="M424.16,79.7h1.19l1.89,7.88c.3,1.3.5,2.24.74,3.19h.07c.23-1,.43-1.89.74-3.19l1.89-7.88h1.19l-3.21,12.6h-1.3Z" transform="translate(-12.93 -10)" style="fill: #231f20"/>
      <path d="M433.62,93.92c1,0,1.31-.54,1.31-1.5V86h.71v6.42c0,1.33-.62,2.17-2,2.18Zm1.09-9.64a.55.55,0,0,1,.58-.58.54.54,0,0,1,.57.58.53.53,0,0,1-.57.57A.54.54,0,0,1,434.71,84.28Z" transform="translate(-12.93 -10)" style="fill: #231f20"/>
      <path d="M440.88,84.6h-3v-.69h3.86v.39l-2.32,8h-.75Z" transform="translate(-12.93 -10)" style="fill: #231f20"/>
    </g>
    <g>
      <path d="M462.81,79.7H464l1.89,7.88c.31,1.3.5,2.24.74,3.19h.07c.23-1,.43-1.89.74-3.19l1.89-7.88h1.19l-3.21,12.6H466Z" transform="translate(-12.93 -10)" style="fill: #231f20"/>
      <path d="M473.08,84.27a.54.54,0,0,1,.57-.58.58.58,0,1,1,0,1.15A.54.54,0,0,1,473.08,84.27ZM473.3,86H474v6.3h-.71Z" transform="translate(-12.93 -10)" style="fill: #231f20"/>
      <path d="M480.87,89.94v.2a2.14,2.14,0,1,1-4.27,0v-.2a2.06,2.06,0,0,1,1.11-2,2.05,2.05,0,0,1-1-1.88v-.15a2,2,0,1,1,4,0v.15a2.05,2.05,0,0,1-1,1.88A2.05,2.05,0,0,1,480.87,89.94Zm-.71,0c0-1-.53-1.61-1.42-1.61s-1.42.6-1.42,1.61v.2c0,1,.53,1.59,1.42,1.59s1.42-.59,1.42-1.59Zm-2.69-3.85c0,1,.47,1.55,1.27,1.55s1.27-.58,1.27-1.55v-.15c0-.92-.47-1.46-1.27-1.46s-1.27.54-1.27,1.46Z" transform="translate(-12.93 -10)" style="fill: #231f20"/>
    </g>
    <g>
      <path d="M521.13,79.7h1.19l1.89,7.88c.31,1.3.5,2.24.74,3.19H525c.23-1,.43-1.89.74-3.19l1.89-7.88h1.19l-3.21,12.6h-1.29Z" transform="translate(-12.93 -10)" style="fill: #231f20"/>
      <path d="M530.59,93.92c1,0,1.31-.54,1.31-1.5V86h.71v6.42c0,1.33-.61,2.17-2,2.18Zm1.1-9.64a.54.54,0,0,1,.57-.58.55.55,0,0,1,.58.58.54.54,0,0,1-.58.57A.53.53,0,0,1,531.69,84.28Z" transform="translate(-12.93 -10)" style="fill: #231f20"/>
      <path d="M539.52,85.9v4.47a1.93,1.93,0,0,1-2,2,2,2,0,0,1-2-2h.71a1.27,1.27,0,0,0,1.28,1.3,1.24,1.24,0,0,0,1.28-1.35V88.86a1.81,1.81,0,0,1-1.36.56,2,2,0,0,1-2-2.06V85.9a2,2,0,1,1,4,0Zm-.72,1.44V85.9a1.31,1.31,0,1,0-2.6,0v1.46a1.29,1.29,0,0,0,1.36,1.37A1.24,1.24,0,0,0,538.8,87.34Z" transform="translate(-12.93 -10)" style="fill: #231f20"/>
    </g>
  </g>
  <g>
    <g>
      <path d="M457.76,166.89h.66l1,4.38c.17.72.28,1.24.42,1.77h0c.13-.53.24-1,.41-1.77l1.05-4.38H462l-1.78,7h-.71Z" transform="translate(-12.93 -10)" style="fill: #231f20"/>
      <path d="M461.69,175.24c.82,0,1.09-.45,1.09-1.25v-5.35h.59V174c0,1.1-.51,1.8-1.68,1.81Zm.91-8a.45.45,0,0,1,.48-.48.48.48,0,0,1,0,1A.45.45,0,0,1,462.6,167.2Z" transform="translate(-12.93 -10)" style="fill: #231f20"/>
      <path d="M468.27,171.92v.17a1.78,1.78,0,1,1-3.56,0v-.17a1.72,1.72,0,0,1,.92-1.64,1.74,1.74,0,0,1-.8-1.57v-.12a1.67,1.67,0,1,1,3.32,0v.12a1.72,1.72,0,0,1-.8,1.57A1.72,1.72,0,0,1,468.27,171.92Zm-.6,0c0-.84-.44-1.34-1.18-1.34s-1.17.5-1.17,1.34v.17c0,.83.43,1.32,1.17,1.32s1.18-.49,1.18-1.32Zm-2.24-3.21c0,.81.39,1.29,1.06,1.29s1.06-.48,1.06-1.29v-.12c0-.77-.39-1.22-1.06-1.22s-1.06.45-1.06,1.22Z" transform="translate(-12.93 -10)" style="fill: #231f20"/>
      <path d="M471.53,171h2.39v.56h-2.39Z" transform="translate(-12.93 -10)" style="fill: #231f20"/>
      <path d="M476.79,166.89h.66l1,4.38c.17.72.28,1.24.41,1.77h0c.13-.53.24-1,.41-1.77l1-4.38h.66l-1.78,7h-.72Z" transform="translate(-12.93 -10)" style="fill: #231f20"/>
      <path d="M481.64,167.19a.45.45,0,0,1,.49-.48.48.48,0,0,1,0,1A.45.45,0,0,1,481.64,167.19Zm.19,1.45h.59v5.25h-.59Z" transform="translate(-12.93 -10)" style="fill: #231f20"/>
      <path d="M487.14,171.92v.17a1.78,1.78,0,1,1-3.56,0v-.17a1.72,1.72,0,0,1,.92-1.64,1.73,1.73,0,0,1-.79-1.57v-.12a1.66,1.66,0,1,1,3.31,0v.12a1.72,1.72,0,0,1-.8,1.57A1.72,1.72,0,0,1,487.14,171.92Zm-.6,0c0-.84-.44-1.34-1.18-1.34s-1.18.5-1.18,1.34v.17c0,.83.44,1.32,1.18,1.32s1.18-.49,1.18-1.32Zm-2.24-3.21c0,.81.39,1.29,1.06,1.29s1.06-.48,1.06-1.29v-.12c0-.77-.39-1.22-1.06-1.22s-1.06.45-1.06,1.22Z" transform="translate(-12.93 -10)" style="fill: #231f20"/>
    </g>
    <g>
      <path d="M419.77,166.89h.66l1.05,4.38c.17.72.28,1.24.41,1.77h0c.13-.53.24-1,.41-1.77l1.05-4.38h.66l-1.78,7h-.72Z" transform="translate(-12.93 -10)" style="fill: #231f20"/>
      <path d="M423.7,175.24c.82,0,1.09-.45,1.09-1.25v-5.35h.59V174c0,1.1-.51,1.8-1.68,1.81Zm.91-8a.48.48,0,1,1,.48.48A.45.45,0,0,1,424.61,167.2Z" transform="translate(-12.93 -10)" style="fill: #231f20"/>
      <path d="M428.75,167.47h-2.52v-.58h3.22v.33l-1.93,6.67h-.63Z" transform="translate(-12.93 -10)" style="fill: #231f20"/>
      <path d="M432.5,171h2.4v.56h-2.4Z" transform="translate(-12.93 -10)" style="fill: #231f20"/>
      <path d="M437.76,166.89h.66l1.05,4.38c.17.72.28,1.24.41,1.77h0c.13-.53.24-1,.41-1.77l1.05-4.38H442l-1.78,7h-.72Z" transform="translate(-12.93 -10)" style="fill: #231f20"/>
      <path d="M442.62,167.19a.48.48,0,1,1,.48.48A.45.45,0,0,1,442.62,167.19Zm.19,1.45h.59v5.25h-.59Z" transform="translate(-12.93 -10)" style="fill: #231f20"/>
      <path d="M446.58,167.47h-2.52v-.58h3.22v.33l-1.93,6.67h-.63Z" transform="translate(-12.93 -10)" style="fill: #231f20"/>
    </g>
    <g>
      <path d="M380,166.89h.66l1.05,4.38c.17.72.28,1.24.41,1.77h0c.13-.53.24-1,.41-1.77l1-4.38h.66l-1.77,7h-.72Z" transform="translate(-12.93 -10)" style="fill: #231f20"/>
      <path d="M383.88,175.24c.82,0,1.09-.45,1.09-1.25v-5.35h.59V174c0,1.1-.51,1.8-1.68,1.81Zm.91-8a.48.48,0,1,1,.48.48A.45.45,0,0,1,384.79,167.2Z" transform="translate(-12.93 -10)" style="fill: #231f20"/>
      <path d="M390.35,171v1.22a1.68,1.68,0,1,1-3.36,0V168.5a1.61,1.61,0,0,1,1.67-1.71,1.67,1.67,0,0,1,1.65,1.66h-.6a1,1,0,0,0-1-1.08,1,1,0,0,0-1.07,1.12v1.27a1.5,1.5,0,0,1,1.12-.47A1.64,1.64,0,0,1,390.35,171Zm-.6,0a1.07,1.07,0,0,0-1.13-1.14,1,1,0,0,0-1,1.16v1.2a1.08,1.08,0,1,0,2.16,0Z" transform="translate(-12.93 -10)" style="fill: #231f20"/>
      <path d="M393.48,171h2.4v.56h-2.4Z" transform="translate(-12.93 -10)" style="fill: #231f20"/>
      <path d="M398.74,166.89h.66l1.05,4.38c.17.72.27,1.24.41,1.77h0c.14-.53.24-1,.41-1.77l1.05-4.38H403l-1.78,7h-.71Z" transform="translate(-12.93 -10)" style="fill: #231f20"/>
      <path d="M403.6,167.19a.48.48,0,1,1,.48.48A.45.45,0,0,1,403.6,167.19Zm.19,1.45h.59v5.25h-.59Z" transform="translate(-12.93 -10)" style="fill: #231f20"/>
      <path d="M409,171v1.22a1.68,1.68,0,1,1-3.36,0V168.5a1.61,1.61,0,0,1,1.66-1.71,1.67,1.67,0,0,1,1.66,1.66h-.6a1.05,1.05,0,0,0-1.06-1.08,1,1,0,0,0-1.07,1.12v1.27a1.54,1.54,0,0,1,1.13-.47A1.65,1.65,0,0,1,409,171Zm-.6,0a1.08,1.08,0,0,0-1.13-1.14,1,1,0,0,0-1,1.16v1.2a1.09,1.09,0,1,0,2.17,0Z" transform="translate(-12.93 -10)" style="fill: #231f20"/>
    </g>
    <g>
      <path d="M341.24,166.89h.66l1.05,4.38c.17.72.28,1.24.41,1.77h0c.13-.53.24-1,.41-1.77l1.05-4.38h.66l-1.78,7H343Z" transform="translate(-12.93 -10)" style="fill: #231f20"/>
      <path d="M345.17,175.24c.82,0,1.09-.45,1.09-1.25v-5.35h.59V174c0,1.1-.51,1.8-1.68,1.81Zm.91-8a.48.48,0,1,1,.48.48A.45.45,0,0,1,346.08,167.2Z" transform="translate(-12.93 -10)" style="fill: #231f20"/>
      <path d="M351.34,171.11v.7c0,1.51-.56,2.18-1.56,2.18s-1.57-.63-1.61-1.76h.59c0,.8.39,1.18,1,1.18s1-.41,1-1.6v-.69c0-.9-.29-1.33-1-1.33a.93.93,0,0,0-.93.76h-.57v-3.66h2.88v.56h-2.29v2.16a1.32,1.32,0,0,1,1-.39C350.76,169.22,351.34,169.89,351.34,171.11Z" transform="translate(-12.93 -10)" style="fill: #231f20"/>
      <path d="M354.45,171h2.4v.56h-2.4Z" transform="translate(-12.93 -10)" style="fill: #231f20"/>
      <path d="M359.71,166.89h.66l1.05,4.38c.17.72.28,1.24.41,1.77h0c.13-.53.24-1,.41-1.77l1.05-4.38H364l-1.78,7h-.72Z" transform="translate(-12.93 -10)" style="fill: #231f20"/>
      <path d="M364.57,167.19a.48.48,0,1,1,.48.48A.45.45,0,0,1,364.57,167.19Zm.19,1.45h.59v5.25h-.59Z" transform="translate(-12.93 -10)" style="fill: #231f20"/>
      <path d="M369.65,171.11v.7c0,1.51-.56,2.18-1.56,2.18s-1.57-.63-1.61-1.76h.59c0,.8.39,1.18,1,1.18s1-.41,1-1.6v-.69c0-.9-.29-1.33-1-1.33a.93.93,0,0,0-.93.76h-.57v-3.66h2.88v.56h-2.29v2.16a1.32,1.32,0,0,1,1-.39C369.07,169.22,369.65,169.89,369.65,171.11Z" transform="translate(-12.93 -10)" style="fill: #231f20"/>
    </g>
    <g>
      <path d="M302.15,166.89h.66l1.05,4.38c.17.72.28,1.24.41,1.77h0c.13-.53.24-1,.41-1.77l1-4.38h.66l-1.78,7h-.72Z" transform="translate(-12.93 -10)" style="fill: #231f20"/>
      <path d="M306.08,175.24c.82,0,1.09-.45,1.09-1.25v-5.35h.59V174c0,1.1-.51,1.8-1.68,1.81Zm.91-8a.48.48,0,1,1,.48.48A.45.45,0,0,1,307,167.2Z" transform="translate(-12.93 -10)" style="fill: #231f20"/>
      <path d="M312.66,172h-.85v1.87h-.6V172h-2.49v-.33l1.62-4.8H311l-1.54,4.55h1.78V169h.6v2.45h.85Z" transform="translate(-12.93 -10)" style="fill: #231f20"/>
      <path d="M315.43,171h2.4v.56h-2.4Z" transform="translate(-12.93 -10)" style="fill: #231f20"/>
      <path d="M320.69,166.89h.66l1,4.38c.17.72.28,1.24.41,1.77h0c.13-.53.24-1,.41-1.77l1.05-4.38H325l-1.77,7h-.72Z" transform="translate(-12.93 -10)" style="fill: #231f20"/>
      <path d="M325.55,167.19a.48.48,0,1,1,.48.48A.45.45,0,0,1,325.55,167.19Zm.19,1.45h.59v5.25h-.59Z" transform="translate(-12.93 -10)" style="fill: #231f20"/>
      <path d="M331,172h-.85v1.87h-.6V172H327.1v-.33l1.62-4.8h.63l-1.54,4.55h1.78V169h.6v2.45H331Z" transform="translate(-12.93 -10)" style="fill: #231f20"/>
    </g>
    <g>
      <path d="M263.12,166.89h.66l1.05,4.38c.17.72.28,1.24.41,1.77h0c.13-.53.24-1,.41-1.77l1.05-4.38h.66l-1.78,7h-.72Z" transform="translate(-12.93 -10)" style="fill: #231f20"/>
      <path d="M267.05,175.24c.82,0,1.09-.45,1.09-1.25v-5.35h.59V174c0,1.1-.51,1.8-1.68,1.81Zm.91-8a.48.48,0,1,1,.48.48A.45.45,0,0,1,268,167.2Z" transform="translate(-12.93 -10)" style="fill: #231f20"/>
      <path d="M273.18,171.56v.51c0,1.26-.69,1.93-1.7,1.93s-1.72-.63-1.72-2h.6c0,1.07.51,1.38,1.11,1.38s1.12-.41,1.12-1.35v-.51a1.1,1.1,0,0,0-1.21-1.24h-.63v-.5l1.49-2.37H270v-.56h3v.43l-1.59,2.48h0A1.57,1.57,0,0,1,273.18,171.56Z" transform="translate(-12.93 -10)" style="fill: #231f20"/>
      <path d="M276.4,171h2.4v.56h-2.4Z" transform="translate(-12.93 -10)" style="fill: #231f20"/>
      <path d="M281.66,166.89h.66l1.05,4.38c.17.72.28,1.24.41,1.77h0c.13-.53.24-1,.41-1.77l1-4.38h.66l-1.78,7h-.72Z" transform="translate(-12.93 -10)" style="fill: #231f20"/>
      <path d="M286.52,167.19a.48.48,0,1,1,.48.48A.45.45,0,0,1,286.52,167.19Zm.19,1.45h.59v5.25h-.59Z" transform="translate(-12.93 -10)" style="fill: #231f20"/>
      <path d="M291.56,171.56v.51c0,1.26-.69,1.93-1.7,1.93s-1.72-.63-1.72-2h.6c0,1.07.51,1.38,1.11,1.38S291,173,291,172.07v-.51a1.1,1.1,0,0,0-1.21-1.24h-.63v-.5l1.49-2.37h-2.24v-.56h3v.43l-1.59,2.48h0A1.57,1.57,0,0,1,291.56,171.56Z" transform="translate(-12.93 -10)" style="fill: #231f20"/>
    </g>
    <g>
      <path d="M224.14,166.89h.66l1,4.38c.17.72.28,1.24.41,1.77h0c.13-.53.24-1,.41-1.77l1-4.38h.66l-1.78,7h-.72Z" transform="translate(-12.93 -10)" style="fill: #231f20"/>
      <path d="M228.07,175.24c.82,0,1.09-.45,1.09-1.25v-5.35h.59V174c0,1.1-.51,1.8-1.68,1.81Zm.91-8a.48.48,0,1,1,.48.48A.45.45,0,0,1,229,167.2Z" transform="translate(-12.93 -10)" style="fill: #231f20"/>
      <path d="M230.92,173.39c0-2.38,2.7-3.31,2.7-5a1,1,0,0,0-1-1c-.61,0-1,.4-1,1.19H231a1.65,1.65,0,0,1,1.62-1.75,1.54,1.54,0,0,1,1.64,1.58c0,2-2.7,2.93-2.7,5h2.77v.56h-3.37Z" transform="translate(-12.93 -10)" style="fill: #231f20"/>
      <path d="M237.38,171h2.4v.56h-2.4Z" transform="translate(-12.93 -10)" style="fill: #231f20"/>
      <path d="M242.64,166.89h.66l1,4.38c.17.72.28,1.24.41,1.77h0c.13-.53.24-1,.41-1.77l1-4.38h.66l-1.78,7h-.72Z" transform="translate(-12.93 -10)" style="fill: #231f20"/>
      <path d="M247.5,167.19a.48.48,0,1,1,.48.48A.45.45,0,0,1,247.5,167.19Zm.19,1.45h.59v5.25h-.59Z" transform="translate(-12.93 -10)" style="fill: #231f20"/>
      <path d="M249.26,173.39c0-2.38,2.7-3.31,2.7-5a1,1,0,0,0-1-1c-.61,0-1,.4-1,1.19h-.6a1.65,1.65,0,0,1,1.62-1.75,1.54,1.54,0,0,1,1.64,1.58c0,2-2.7,2.93-2.7,5h2.77v.56h-3.37Z" transform="translate(-12.93 -10)" style="fill: #231f20"/>
    </g>
    <g>
      <path d="M186.36,166.89H187l1,4.38c.17.72.28,1.24.41,1.77h0c.13-.53.24-1,.41-1.77l1-4.38h.66l-1.78,7h-.72Z" transform="translate(-12.93 -10)" style="fill: #231f20"/>
      <path d="M190.3,175.24c.81,0,1.08-.45,1.08-1.25v-5.35H192V174c0,1.1-.51,1.8-1.67,1.81Zm.9-8a.48.48,0,1,1,.48.48A.45.45,0,0,1,191.2,167.2Z" transform="translate(-12.93 -10)" style="fill: #231f20"/>
      <path d="M194.83,166.89v7h-.6v-6.21l-1.15,1v-.76l1.15-1Z" transform="translate(-12.93 -10)" style="fill: #231f20"/>
      <path d="M198.35,171h2.4v.56h-2.4Z" transform="translate(-12.93 -10)" style="fill: #231f20"/>
      <path d="M203.61,166.89h.66l1,4.38c.17.72.28,1.24.41,1.77h0c.13-.53.24-1,.41-1.77l1-4.38h.66l-1.78,7h-.72Z" transform="translate(-12.93 -10)" style="fill: #231f20"/>
      <path d="M208.47,167.19a.48.48,0,1,1,.48.48A.45.45,0,0,1,208.47,167.19Zm.19,1.45h.59v5.25h-.59Z" transform="translate(-12.93 -10)" style="fill: #231f20"/>
      <path d="M211.92,166.89v7h-.6v-6.21l-1.15,1v-.76l1.15-1Z" transform="translate(-12.93 -10)" style="fill: #231f20"/>
    </g>
    <g>
      <path d="M504.16,165.94h.57v8.8h-.57Z" transform="translate(-12.93 -10)" style="fill: #231f20"/>
      <path d="M507.11,165.94h.57v8.8h-.57Z" transform="translate(-12.93 -10)" style="fill: #231f20"/>
      <path d="M512.77,166.89h.66l1.05,4.38c.17.72.28,1.24.41,1.77h0c.13-.53.24-1,.41-1.77l1-4.38h.66l-1.78,7h-.72Z" transform="translate(-12.93 -10)" style="fill: #231f20"/>
      <path d="M517.7,175.24c.82,0,1.09-.45,1.09-1.25v-5.35h.59V174c0,1.1-.51,1.8-1.68,1.81Zm.91-8a.48.48,0,1,1,.48.48A.45.45,0,0,1,518.61,167.2Z" transform="translate(-12.93 -10)" style="fill: #231f20"/>
      <path d="M525.14,168.55v3.73a1.61,1.61,0,0,1-1.67,1.71,1.67,1.67,0,0,1-1.66-1.66h.6a1.05,1.05,0,0,0,1.06,1.08,1,1,0,0,0,1.07-1.12V171a1.51,1.51,0,0,1-1.13.47,1.65,1.65,0,0,1-1.64-1.72v-1.22a1.69,1.69,0,1,1,3.37,0Zm-.6,1.2v-1.2a1.09,1.09,0,1,0-2.17,0v1.22a1.08,1.08,0,0,0,1.14,1.14A1,1,0,0,0,524.54,169.75Z" transform="translate(-12.93 -10)" style="fill: #231f20"/>
      <path d="M530.48,171h2.4v.56h-2.4Z" transform="translate(-12.93 -10)" style="fill: #231f20"/>
      <path d="M537.74,166.89h.66l1.05,4.38c.17.72.28,1.24.41,1.77h0c.13-.53.24-1,.41-1.77l1.05-4.38H542l-1.78,7h-.72Z" transform="translate(-12.93 -10)" style="fill: #231f20"/>
      <path d="M542.67,175.24c.82,0,1.09-.45,1.09-1.25v-5.35h.59V174c0,1.1-.51,1.8-1.68,1.81Zm.91-8a.48.48,0,1,1,.48.48A.45.45,0,0,1,543.58,167.2Z" transform="translate(-12.93 -10)" style="fill: #231f20"/>
      <path d="M550.11,168.55v3.73a1.61,1.61,0,0,1-1.67,1.71,1.67,1.67,0,0,1-1.66-1.66h.6a1.05,1.05,0,0,0,1.06,1.08,1,1,0,0,0,1.07-1.12V171a1.51,1.51,0,0,1-1.13.47,1.65,1.65,0,0,1-1.64-1.72v-1.22a1.69,1.69,0,1,1,3.37,0Zm-.6,1.2v-1.2a1.09,1.09,0,1,0-2.17,0v1.22a1.08,1.08,0,0,0,1.14,1.14A1,1,0,0,0,549.51,169.75Z" transform="translate(-12.93 -10)" style="fill: #231f20"/>
      <path d="M555.68,165.94h.57v8.8h-.57Z" transform="translate(-12.93 -10)" style="fill: #231f20"/>
      <path d="M558.63,165.94h.57v8.8h-.57Z" transform="translate(-12.93 -10)" style="fill: #231f20"/>
    </g>
  </g>
  <polygon points="369.07 118.95 369.07 105.32 355.24 105.32 355.24 118.95 349.31 118.95 355.74 126.2 362.16 133.46 368.58 126.2 375 118.95 369.07 118.95" style="fill: #ed2024"/>
</svg>
